<svg width="1033" height="833" viewBox="0 0 1033 833" fill="none" xmlns="http://www.w3.org/2000/svg">
<g clip-path="url(#clip0)">
<path opacity="0.1" d="M530.99 832.64C788.62 832.64 997.47 646.247 997.47 416.32C997.47 186.393 788.62 0 530.99 0C273.36 0 64.51 186.393 64.51 416.32C64.51 646.247 273.36 832.64 530.99 832.64Z" fill="#E84A5F"/>
<path opacity="0.1" d="M172 655.94C266.993 655.94 344 644.004 344 629.28C344 614.556 266.993 602.62 172 602.62C77.007 602.62 0 614.556 0 629.28C0 644.004 77.007 655.94 172 655.94Z" fill="#E84A5F"/>
<path opacity="0.1" d="M254.67 782.95C291.618 782.95 321.57 776.763 321.57 769.13C321.57 761.497 291.618 755.31 254.67 755.31C217.722 755.31 187.77 761.497 187.77 769.13C187.77 776.763 217.722 782.95 254.67 782.95Z" fill="#E84A5F"/>
<path opacity="0.1" d="M711.8 729.78C748.748 729.78 778.7 723.593 778.7 715.96C778.7 708.328 748.748 702.14 711.8 702.14C674.852 702.14 644.9 708.328 644.9 715.96C644.9 723.593 674.852 729.78 711.8 729.78Z" fill="#E84A5F"/>
<path opacity="0.1" d="M507.79 480.86C567.873 480.86 616.58 472.609 616.58 462.43C616.58 452.251 567.873 444 507.79 444C447.707 444 399 452.251 399 462.43C399 472.609 447.707 480.86 507.79 480.86Z" fill="#E84A5F"/>
<path opacity="0.1" d="M805.34 644.06C930.659 644.06 1032.25 628.148 1032.25 608.52C1032.25 588.892 930.659 572.98 805.34 572.98C680.021 572.98 578.43 588.892 578.43 608.52C578.43 628.148 680.021 644.06 805.34 644.06Z" fill="#E84A5F"/>
<path d="M47.03 546.49C41.9329 556.406 39.5523 567.494 40.1302 578.628C40.7081 589.762 44.2238 600.545 50.32 609.88C52.32 612.88 54.16 615.04 55.63 615.61C62.68 618.38 76.8 625.19 76.8 625.19L110.8 611.83C110.8 611.83 116.32 582.63 121.54 557.56C125.1 540.46 128.54 525.29 129.95 522.63C133.47 516.08 129.95 444.77 129.95 444.77C129.95 444.77 95.95 442.49 86.6 468.7L82.51 476.7L47.03 546.49Z" fill="#A8A8A8"/>
<path opacity="0.1" d="M92.17 554.37C112.84 578.06 121.56 557.57 121.56 557.57C125.12 540.47 128.56 525.3 129.97 522.64C133.49 516.09 129.97 444.78 129.97 444.78C129.97 444.78 95.97 442.5 86.62 468.71L82.53 476.71C79.91 497.68 77.32 537.32 92.17 554.37Z" fill="white"/>
<path d="M96.71 620.4L216.71 606.54L238.12 465.66L221.93 429.07C215.09 413.488 205.618 399.199 193.93 386.83C185.78 378.24 175.93 369.98 165.57 365.83C164.154 365.26 162.709 364.765 161.24 364.35C159.552 363.837 157.766 363.73 156.028 364.038C154.29 364.345 152.65 365.059 151.24 366.12C136.44 376.61 131.15 421.21 129.44 442.68C128.737 451.503 127.545 460.279 125.87 468.97L96.71 620.4Z" fill="#A8A8A8"/>
<path opacity="0.1" d="M176.6 464.14L151.6 525.64C164.7 516.06 184.11 463.89 184.11 463.89L201.5 523.37L187.64 460.68C189.669 447.066 190.259 433.277 189.4 419.54C188.3 403.8 173.53 378.54 165.51 365.82C164.094 365.249 162.649 364.755 161.18 364.34C159.491 363.827 157.706 363.72 155.968 364.028C154.23 364.335 152.59 365.049 151.18 366.11C157.48 378.76 173.23 410.39 178.03 419.79C184.12 431.63 176.6 464.14 176.6 464.14Z" fill="white"/>
<path d="M197.01 625.19H262.12C264.798 625.191 267.449 624.647 269.91 623.591C272.372 622.535 274.593 620.99 276.438 619.049C278.284 617.108 279.715 614.812 280.645 612.301C281.576 609.789 281.986 607.115 281.85 604.44C280.41 576.52 276.76 526.74 268.08 495.14C263.39 478.09 257.94 469.14 252.94 464.73C250.595 462.467 247.568 461.043 244.33 460.68C241.874 460.468 239.415 461.065 237.33 462.38C225.24 473.97 211.12 534.96 211.12 534.96L197.01 625.19Z" fill="#A8A8A8"/>
<path opacity="0.1" d="M257.12 571.1C259.8 578.53 260.86 587.1 257.12 595.45L242.61 602.62C242.61 602.62 203.61 586.09 208.35 552.21C208.35 552.21 209.63 545.21 223.06 545.75C230.613 546.115 237.886 548.721 243.952 553.236C250.018 557.751 254.602 563.97 257.12 571.1V571.1Z" fill="white"/>
<path opacity="0.1" d="M241.62 482.04C241.17 470.16 247.62 466.04 252.95 464.73C250.605 462.467 247.578 461.043 244.34 460.68C240.63 463.785 238.001 467.986 236.83 472.68L223.23 538.97C223.23 538.97 242.38 501.95 241.62 482.04Z" fill="white"/>
<path d="M179.88 534.46L212.12 578.56L217.71 614.96L196.99 625.19L167.12 631.79C164.243 632.429 161.285 632.621 158.35 632.36L76.84 625.19L87.93 599.48L126.23 545.71L179.88 534.46Z" fill="#A8A8A8"/>
<path opacity="0.1" d="M167.4 519.32C167.4 519.32 189.4 520.83 181.14 558.63C172.88 596.43 87.89 599.46 87.89 599.46C87.89 599.46 105.95 567.46 133.73 544.53C136.85 541.96 139.86 539.28 142.73 536.42C149.12 530.03 161.34 518.8 167.4 519.32Z" fill="white"/>
<path opacity="0.1" d="M187.19 547.82C187.19 547.82 217 574.95 214.19 616.7Z" fill="black"/>
<path opacity="0.1" d="M237.34 462.38C237.34 462.38 206.06 503.98 202.55 567.99Z" fill="black"/>
<path opacity="0.1" d="M129.98 444.75C129.98 444.75 145.12 513.5 107.32 565.32Z" fill="black"/>
<path d="M426.131 456.754H589.271C590.848 456.745 592.396 456.329 593.764 455.545C595.132 454.762 596.275 453.637 597.08 452.281C597.885 450.925 598.326 449.384 598.359 447.808C598.393 446.231 598.018 444.673 597.271 443.284L515.741 291.804C514.959 290.352 513.799 289.138 512.384 288.292C510.968 287.447 509.35 287 507.701 287C506.052 287 504.433 287.447 503.018 288.292C501.602 289.138 500.442 290.352 499.661 291.804L418.091 443.284C417.342 444.676 416.967 446.238 417.002 447.818C417.038 449.398 417.482 450.941 418.292 452.298C419.102 453.655 420.25 454.779 421.624 455.56C422.997 456.341 424.55 456.752 426.131 456.754V456.754ZM518.081 429.074H497.321V408.324H518.081V429.074ZM518.081 394.484H497.321V352.974H518.081V394.484Z" fill="#464353"/>
<path d="M247.82 256.63C246.82 256.3 245.82 255.95 244.82 255.63L246.9 255.79C247.247 256.023 247.557 256.306 247.82 256.63Z" fill="#FBBEBE"/>
<path opacity="0.1" d="M282.28 294.69C282.75 294.69 282.58 294.69 282.35 294.77C282.12 294.85 281.74 294.85 282.28 294.69Z" fill="black"/>
<path d="M695.32 511.08C695.32 511.08 672.12 541.61 652.87 541.86C633.62 542.11 622.32 554.72 631.46 562.6C640.6 570.48 740.2 558.1 740.2 558.1C740.2 558.1 741.14 520.58 732.51 515.1C723.88 509.62 695.32 511.08 695.32 511.08Z" fill="#444176"/>
<path d="M944.77 547.73C944.77 547.73 948.32 571.91 937.35 588.4C926.38 604.89 957.17 611.25 957.17 611.25C957.17 611.25 979.54 617.48 981.17 595.38C982.8 573.28 982.27 556.38 980.17 554.58C978.07 552.78 976.32 540.35 976.32 540.35L944.77 547.73Z" fill="#444176"/>
<path d="M593.57 593.4C593.57 593.4 592.76 515.19 670.15 483.4L688.12 449.21L696.74 428.21C699.861 420.604 704.772 413.864 711.055 408.561C717.338 403.258 724.808 399.549 732.83 397.75L746.77 394.62L751.08 376.46C753.376 366.753 758.464 357.931 765.717 351.082C772.969 344.233 782.067 339.658 791.89 337.92C800.367 336.346 808.968 335.543 817.59 335.52C821.405 335.577 825.14 336.621 828.432 338.548C831.724 340.476 834.462 343.222 836.38 346.52V346.52C836.38 346.52 909.7 345.71 912.95 385.63C912.95 385.63 920.29 422.28 930.88 428.8C930.88 428.8 948.8 424.73 966.72 450.8L986.27 517.6C986.27 517.6 1037.59 565.66 1022.11 609.6C1022.11 609.6 1000.93 639.74 893.4 619.37C893.4 619.37 778.54 654.37 717.4 606.37C717.39 606.43 615.57 625.98 593.57 593.4Z" fill="#A8A8A8"/>
<path opacity="0.1" d="M644.89 581.18C644.89 581.18 661.19 558.37 660.37 542.07C659.55 525.77 664.21 486.07 664.21 486.07" stroke="black" stroke-miterlimit="10"/>
<path opacity="0.1" d="M704.36 520.08C704.36 520.08 720.65 489.94 719.02 473.65C719.02 473.65 736.13 442.65 749.16 445.13" stroke="black" stroke-miterlimit="10"/>
<path opacity="0.1" d="M793.97 434.54C793.97 434.54 838.77 418.25 841.22 405.22" stroke="black" stroke-miterlimit="10"/>
<path opacity="0.1" d="M810.26 472.02C810.26 472.02 857.51 450.84 857.51 445.13H881.12C881.12 445.13 915.34 489.94 911.27 509.49" stroke="black" stroke-miterlimit="10"/>
<path opacity="0.1" d="M865.66 504.6C865.66 504.6 820.04 501.34 803.74 514.38C787.44 527.42 758.12 533.93 758.12 533.93C758.12 533.93 741.01 570.59 734.49 577.1C727.97 583.61 717.38 606.43 717.38 606.43" stroke="black" stroke-miterlimit="10"/>
<path opacity="0.1" d="M865.66 547.78C865.66 547.78 870.54 564.88 877.06 574.66C883.58 584.44 893.35 619.46 893.35 619.46" stroke="black" stroke-miterlimit="10"/>
<path opacity="0.1" d="M942.23 597.47C942.23 597.47 952.57 626.24 961.66 626.52" stroke="black" stroke-miterlimit="10"/>
<path opacity="0.1" d="M874.5 473.98C874.5 473.98 901.36 481.24 912.59 498.83C923.82 516.42 958.12 532.37 958.12 532.37" stroke="black" stroke-miterlimit="10"/>
<path opacity="0.1" d="M886.02 387.32C886.02 387.32 886.02 424.79 896.61 424.79C907.2 424.79 930.83 428.86 930.83 428.86" stroke="black" stroke-miterlimit="10"/>
<path opacity="0.1" d="M834.12 342.82C834.12 342.82 831.41 407.55 817.56 424.31" stroke="black" stroke-miterlimit="10"/>
<g opacity="0.05">
<path opacity="0.05" d="M984.59 516.82L965.04 450.02C947.12 423.95 929.2 428.02 929.2 428.02C918.61 421.5 911.28 384.84 911.28 384.84C908.02 344.92 834.7 345.74 834.7 345.74C832.779 342.436 830.035 339.686 826.735 337.758C823.435 335.831 819.692 334.791 815.87 334.74C812.41 334.74 808.87 334.85 805.33 335.14C807.33 335.34 809.247 335.624 811.08 335.99L816.78 345.77C816.78 345.77 890.09 344.95 893.35 384.87C893.35 384.87 900.69 421.53 911.28 428.05C911.28 428.05 929.2 423.97 947.12 450.05L966.67 516.85C966.67 516.85 1017.99 564.91 1002.51 608.85C1002.51 608.85 992.06 623.72 948.59 625.52C1007.2 627.67 1020.43 608.85 1020.43 608.85C1035.91 564.88 984.59 516.82 984.59 516.82Z" fill="black"/>
<path opacity="0.05" d="M697.84 605.61C680.596 608.713 663.157 610.621 645.65 611.32C666.06 612.1 687.29 609.89 700.97 608.01C699.91 607.2 698.87 606.42 697.84 605.61Z" fill="black"/>
<path opacity="0.05" d="M873.8 618.65C848.721 625.684 822.906 629.765 796.88 630.81C834.43 632.17 870 624.34 884.66 620.58C881.12 619.99 877.53 619.32 873.8 618.65Z" fill="black"/>
</g>
<path d="M222.85 745.71C222.85 745.71 245.26 745.02 252.01 740.21C258.76 735.4 286.47 729.66 288.15 737.37C289.83 745.08 321.82 775.72 296.52 775.93C271.22 776.14 237.75 771.99 231.01 767.88C224.27 763.77 222.85 745.71 222.85 745.71Z" fill="#A8A8A8"/>
<path opacity="0.2" d="M296.98 773.24C271.68 773.45 238.2 769.3 231.46 765.24C226.33 762.11 224.28 750.89 223.6 745.72H222.85C222.85 745.72 224.27 763.79 231.01 767.89C237.75 771.99 271.23 776.14 296.52 775.94C303.83 775.88 306.35 773.28 306.21 769.43C305.2 771.75 302.41 773.2 296.98 773.24Z" fill="black"/>
<path d="M769.19 689.51C769.19 689.51 742.8 684.23 735.77 677.19C728.74 670.15 697.07 657.85 693.55 666.64C690.03 675.43 646.06 705.34 675.96 710.64C705.86 715.94 746.32 717.64 755.12 714.16C763.92 710.68 769.19 689.51 769.19 689.51Z" fill="#A8A8A8"/>
<path opacity="0.2" d="M675.96 707.32C705.87 712.59 746.32 714.32 755.12 710.83C761.81 708.15 766.47 695.28 768.31 689.29L769.19 689.48C769.19 689.48 763.91 710.58 755.12 714.1C746.33 717.62 705.87 715.86 675.96 710.58C667.33 709.06 664.86 705.48 665.79 700.96C666.53 703.94 669.54 706.21 675.96 707.32Z" fill="black"/>
<path opacity="0.1" d="M516.5 114.85H510.22C511.387 114.85 512.506 114.386 513.331 113.561C514.156 112.736 514.62 111.617 514.62 110.45C514.62 109.283 514.156 108.164 513.331 107.339C512.506 106.513 511.387 106.05 510.22 106.05H459.34C458.173 106.05 457.054 106.513 456.229 107.339C455.404 108.164 454.94 109.283 454.94 110.45C454.94 111.617 455.404 112.736 456.229 113.561C457.054 114.386 458.173 114.85 459.34 114.85H465.62C464.491 114.904 463.425 115.39 462.645 116.209C461.865 117.027 461.43 118.114 461.43 119.245C461.43 120.375 461.865 121.463 462.645 122.281C463.425 123.099 464.491 123.586 465.62 123.64H456.83C455.663 123.64 454.544 124.103 453.719 124.929C452.894 125.754 452.43 126.873 452.43 128.04C452.43 129.207 452.894 130.326 453.719 131.151C454.544 131.976 455.663 132.44 456.83 132.44H507.71C508.877 132.44 509.996 131.976 510.821 131.151C511.646 130.326 512.11 129.207 512.11 128.04C512.11 126.873 511.646 125.754 510.821 124.929C509.996 124.103 508.877 123.64 507.71 123.64H516.5C517.095 123.668 517.689 123.576 518.247 123.367C518.805 123.159 519.315 122.84 519.746 122.429C520.177 122.018 520.52 121.524 520.754 120.977C520.989 120.43 521.11 119.84 521.11 119.245C521.11 118.649 520.989 118.06 520.754 117.513C520.52 116.965 520.177 116.471 519.746 116.06C519.315 115.649 518.805 115.33 518.247 115.122C517.689 114.914 517.095 114.821 516.5 114.85V114.85Z" fill="#E84A5F"/>
<path opacity="0.1" d="M714.12 269.66H707.84C708.969 269.606 710.035 269.12 710.815 268.301C711.595 267.483 712.03 266.396 712.03 265.265C712.03 264.135 711.595 263.047 710.815 262.229C710.035 261.411 708.969 260.924 707.84 260.87H656.91C656.315 260.842 655.721 260.935 655.163 261.143C654.605 261.351 654.095 261.67 653.664 262.081C653.233 262.492 652.89 262.986 652.656 263.533C652.421 264.08 652.3 264.67 652.3 265.265C652.3 265.861 652.421 266.45 652.656 266.997C652.89 267.545 653.233 268.039 653.664 268.45C654.095 268.861 654.605 269.18 655.163 269.388C655.721 269.596 656.315 269.689 656.91 269.66H663.19C662.061 269.714 660.995 270.201 660.215 271.019C659.435 271.837 659 272.925 659 274.055C659 275.186 659.435 276.273 660.215 277.091C660.995 277.91 662.061 278.396 663.19 278.45H654.4C653.233 278.45 652.114 278.914 651.289 279.739C650.464 280.564 650 281.683 650 282.85C650 284.017 650.464 285.136 651.289 285.962C652.114 286.787 653.233 287.25 654.4 287.25H705.27C706.437 287.25 707.556 286.787 708.381 285.962C709.206 285.136 709.67 284.017 709.67 282.85C709.67 281.683 709.206 280.564 708.381 279.739C707.556 278.914 706.437 278.45 705.27 278.45H714.12C714.715 278.479 715.309 278.386 715.867 278.178C716.425 277.97 716.935 277.651 717.366 277.24C717.797 276.829 718.14 276.335 718.374 275.787C718.609 275.24 718.73 274.651 718.73 274.055C718.73 273.46 718.609 272.871 718.374 272.323C718.14 271.776 717.797 271.282 717.366 270.871C716.935 270.46 716.425 270.141 715.867 269.933C715.309 269.725 714.715 269.632 714.12 269.66V269.66Z" fill="#E84A5F"/>
<path opacity="0.1" d="M421.29 241.02H415.01C415.605 241.048 416.199 240.956 416.757 240.748C417.315 240.54 417.825 240.221 418.256 239.81C418.687 239.399 419.03 238.905 419.264 238.357C419.499 237.81 419.62 237.221 419.62 236.625C419.62 236.03 419.499 235.44 419.264 234.893C419.03 234.346 418.687 233.851 418.256 233.441C417.825 233.03 417.315 232.711 416.757 232.502C416.199 232.294 415.605 232.202 415.01 232.23H364.12C363.525 232.202 362.931 232.294 362.373 232.502C361.815 232.711 361.305 233.03 360.874 233.441C360.443 233.851 360.1 234.346 359.866 234.893C359.631 235.44 359.51 236.03 359.51 236.625C359.51 237.221 359.631 237.81 359.866 238.357C360.1 238.905 360.443 239.399 360.874 239.81C361.305 240.221 361.815 240.54 362.373 240.748C362.931 240.956 363.525 241.048 364.12 241.02H370.4C369.805 240.992 369.211 241.084 368.653 241.292C368.095 241.5 367.585 241.82 367.154 242.231C366.723 242.641 366.38 243.136 366.146 243.683C365.911 244.23 365.79 244.82 365.79 245.415C365.79 246.011 365.911 246.6 366.146 247.147C366.38 247.695 366.723 248.189 367.154 248.6C367.585 249.011 368.095 249.33 368.653 249.538C369.211 249.746 369.805 249.838 370.4 249.81H361.6C360.433 249.81 359.314 250.274 358.489 251.099C357.664 251.924 357.2 253.043 357.2 254.21C357.2 255.377 357.664 256.496 358.489 257.321C359.314 258.147 360.433 258.61 361.6 258.61H412.48C413.647 258.61 414.766 258.147 415.591 257.321C416.416 256.496 416.88 255.377 416.88 254.21C416.88 253.043 416.416 251.924 415.591 251.099C414.766 250.274 413.647 249.81 412.48 249.81H421.27C421.865 249.838 422.459 249.746 423.017 249.538C423.575 249.33 424.085 249.011 424.516 248.6C424.947 248.189 425.29 247.695 425.524 247.147C425.759 246.6 425.88 246.011 425.88 245.415C425.88 244.82 425.759 244.23 425.524 243.683C425.29 243.136 424.947 242.641 424.516 242.231C424.085 241.82 423.575 241.5 423.017 241.292C422.459 241.084 421.865 240.992 421.27 241.02H421.29Z" fill="#E84A5F"/>
</g>
<defs>
<clipPath id="clip0">
<rect width="1032.24" height="832.63" fill="white"/>
</clipPath>
</defs>
</svg>
