<svg viewBox="0 0 2201 1806" fill="none" xmlns="http://www.w3.org/2000/svg">
  <g clip-path="url(#clip0)">
    <path fill-rule="evenodd" clip-rule="evenodd"
          d="M179.033 783.453L57.3189 633.323C55.5585 631.133 55.9093 627.903 58.0902 626.116C129.102 568.564 211.125 509.459 277.696 448.782C280.422 445.357 283.925 446.577 286.886 450.219L471.243 666.403L523.176 730.466C524.937 732.656 524.622 735.904 522.431 737.664L360.043 869.261L296.744 920.562C294.562 922.349 291.333 921.999 289.545 919.817L179.033 783.453Z"
          fill="white"/>
    <path fill-rule="evenodd" clip-rule="evenodd"
          d="M210.633 708.501L117.007 539.455C115.63 536.98 116.532 533.86 118.98 532.493L318.669 421.928L364.515 396.932C366.773 394.846 371.571 394.679 374.668 400.264L518.795 644.22L558.736 716.363C560.103 718.811 559.211 721.958 556.763 723.325L373.912 824.573L302.628 864.062C300.169 865.403 297.022 864.51 295.655 862.062L210.633 708.501Z"
          fill="white"/>
    <path fill-rule="evenodd" clip-rule="evenodd"
          d="M251.628 634.705L311.99 807.583C312.957 810.352 316.013 811.849 318.783 810.882L399.048 782.857L517.872 741.368L534.948 735.406L604.914 710.977C607.684 710.009 609.145 706.935 608.178 704.166L579.818 622.943L501.478 398.577L500.662 396.238L449.571 414.076C444.651 415.794 434.676 420.061 430.781 408.903L413.259 359.067L188.436 437.566C185.666 438.533 184.197 441.58 185.163 444.349L200.23 487.501L206.605 505.757L251.628 634.705Z"
          fill="white"/>
    <path fill-rule="evenodd" clip-rule="evenodd"
          d="M132.528 567.488C107.135 587.213 81.9844 606.763 58.0912 626.115C55.9093 627.902 55.5591 631.131 57.3198 633.322L179.034 783.452L289.547 919.816C291.333 921.997 294.564 922.347 296.746 920.56L360.045 869.26L504.285 752.385L132.528 567.488Z"
          fill="#B5C4CF"/>
    <path fill-rule="evenodd" clip-rule="evenodd"
          d="M200.231 487.502L118.981 532.491C116.532 533.859 115.631 536.98 117.008 539.454L132.527 567.487L210.633 708.501L295.655 862.061C297.022 864.509 300.169 865.402 302.627 864.061L373.912 824.572L504.281 752.387L534.946 735.406L517.873 741.368L200.231 487.502Z"
          fill="#D7E7EC"/>
    <path fill-rule="evenodd" clip-rule="evenodd"
          d="M579.817 622.943L501.477 398.577L500.661 396.238L500.388 395.458C499.881 394.006 499.179 393.98 496.186 392.582L422.674 359.248C419.202 357.685 418.556 357.217 417.023 357.752L413.259 359.067L188.436 437.566C185.666 438.533 184.197 441.58 185.163 444.349L311.989 807.581C312.956 810.35 316.013 811.847 318.783 810.88L604.913 710.975C607.683 710.008 609.143 706.934 608.176 704.165L579.817 622.943Z"
          fill="#EDF3F4"/>
    <path fill-rule="evenodd" clip-rule="evenodd"
          d="M200.231 487.503L181.195 498.041L298.23 833.231C299.206 836.028 302.253 837.498 305.023 836.53L385.288 808.505L433.044 791.831L504.283 752.387L534.948 735.407L517.873 741.369L496.872 748.702L399.049 782.858L318.784 810.883C316.014 811.85 312.957 810.353 311.99 807.584C274.74 700.898 237.481 594.187 200.231 487.503V487.503Z"
          fill="#B5C4CF"/>
    <path fill-rule="evenodd" clip-rule="evenodd"
          d="M210.633 708.501L132.527 567.489C126.379 572.26 120.258 577.021 114.164 581.773L123.869 599.288L201.976 740.301L287.025 893.852C288.366 896.309 291.513 897.201 293.971 895.86L365.255 856.371L399.084 837.653L493.836 760.831L491.841 759.265L433.042 791.832L373.912 824.573L302.628 864.062C300.17 865.403 297.022 864.511 295.655 862.063L210.633 708.501Z"
          fill="#9AAFB7"/>
    <path fill-rule="evenodd" clip-rule="evenodd"
          d="M579.817 622.943L501.477 398.577L500.661 396.238C499.712 393.523 498.815 393.805 496.186 392.581L422.674 359.248C419.202 357.685 418.556 357.217 417.023 357.752L413.259 359.067L357.302 378.604C457.637 446.25 519.138 609.862 504.352 730.552C503.684 736.155 502.842 741.607 501.847 746.961L517.873 741.366L534.948 735.404L604.915 710.974C607.685 710.007 609.145 706.933 608.178 704.164L579.819 622.942L579.817 622.943Z"
          fill="#D7E7EC"/>
    <path fill-rule="evenodd" clip-rule="evenodd"
          d="M430.78 408.904C434.676 420.062 444.65 415.795 449.571 414.077L500.661 396.239L500.389 395.459C499.882 394.007 499.179 393.981 496.187 392.582L422.674 359.249C419.202 357.686 418.557 357.218 417.024 357.753L413.259 359.067L430.78 408.904Z"
          fill="white"/>
    <path fill-rule="evenodd" clip-rule="evenodd"
          d="M496.187 392.582L422.674 359.249C419.202 357.686 418.557 357.218 417.024 357.753L413.259 359.067L430.781 408.904C434.677 420.061 444.651 415.795 449.572 414.077L500.661 396.239L500.389 395.459C499.882 394.007 499.179 393.981 496.187 392.582V392.582Z"
          fill="#B5C4CF"/>
    <path
      d="M500.705 386.397C500.324 386.227 424.638 351.903 424.638 351.903C421.74 350.578 418.743 349.209 414.552 350.673L185.965 430.486C179.288 432.818 175.752 440.147 178.083 446.823L191.066 484.004L115.322 525.945C109.26 529.332 107.075 537.029 110.446 543.089L122.86 565.502C99.7498 583.458 76.0363 601.929 53.3371 620.315C47.9871 624.698 47.1497 632.641 51.4923 638.047L153.231 763.54C155.278 766.065 158.627 766.912 161.53 765.899C162.325 765.621 163.088 765.203 163.78 764.642C166.998 762.033 167.492 757.311 164.883 754.093L64.6496 630.456C86.0452 613.164 108.376 595.753 130.216 578.783L204.073 712.135L289.109 865.72C292.133 871.133 298.635 873.467 304.356 871.469C305.004 871.243 305.642 870.96 306.263 870.622L377.547 831.134L433.253 800.288L355.321 863.434L293.869 913.239L186.289 780.493C183.682 777.275 178.96 776.78 175.74 779.388C172.522 781.996 172.028 786.719 174.636 789.937L283.743 924.57C287.204 928.793 292.841 930.202 297.689 928.509C299.029 928.041 300.309 927.336 301.465 926.389L364.764 875.089L508.5 758.623L538.02 742.277L607.385 718.058C614.061 715.726 617.593 708.386 615.257 701.694L507.468 392.987C505.99 388.748 502.935 387.389 500.705 386.397V386.397ZM482.531 394.625L447.098 406.996L446.222 407.307C444.529 407.91 440.567 409.327 439.211 408.678C438.898 408.527 438.356 407.85 437.855 406.416L424.451 368.289L482.531 394.625ZM600.388 704.611L318.363 803.083L270.18 665.086C268.815 661.176 264.538 659.112 260.627 660.478C256.717 661.843 254.653 666.12 256.019 670.031L304.909 810.054C307.245 816.746 314.579 820.293 321.255 817.961L454.197 771.544L370.278 818.01L301.067 856.351L217.195 704.867L124.714 537.89L196.081 498.372L244.546 637.176C245.911 641.087 250.189 643.15 254.099 641.785C258.01 640.419 260.073 636.142 258.708 632.232L192.961 443.931L408.665 368.615L423.699 411.376C425.51 416.563 428.553 420.207 432.742 422.21C439.179 425.287 446.051 423.258 450.246 421.794C450.607 421.668 450.948 421.546 451.267 421.432L496.052 405.792L600.388 704.611Z"
      fill="black"/>
    <path
      d="M507.669 562.329L305.219 633.016C301.309 634.382 297.031 632.318 295.666 628.408C294.3 624.497 296.364 620.22 300.274 618.855L502.725 548.167C506.635 546.802 510.912 548.865 512.278 552.776C513.643 556.686 511.58 560.964 507.669 562.329Z"
      fill="black"/>
    <path
      d="M525.233 612.633L322.783 683.32C318.873 684.685 314.595 682.622 313.23 678.712C311.865 674.801 313.928 670.524 317.838 669.159L520.289 598.471C524.199 597.106 528.476 599.169 529.842 603.08C531.207 606.99 529.144 611.267 525.233 612.633Z"
      fill="black"/>
    <path
      d="M542.797 662.936L340.347 733.624C336.437 734.989 332.159 732.926 330.794 729.015C329.429 725.105 331.492 720.828 335.402 719.462L537.853 648.775C541.763 647.409 546.04 649.473 547.406 653.383C548.771 657.294 546.708 661.571 542.797 662.936Z"
      fill="black"/>
    <g clip-path="url(#clip1)">
      <path
        d="M313.186 539.036C314.166 538.701 315.092 538.768 316.013 539.219C316.933 539.669 317.561 540.385 317.888 541.34L322.039 553.484L309.614 557.731C308.633 558.066 307.708 558 306.787 557.549C306.346 557.342 305.953 557.047 305.63 556.682C305.308 556.318 305.064 555.891 304.912 555.428L302.937 549.65L315.95 545.201L314.971 542.337C314.913 542.165 314.822 542.059 314.657 541.979C314.493 541.898 314.354 541.891 314.182 541.95L301.757 546.198L300.761 543.284L313.186 539.036ZM318.127 551.567L316.946 548.115L306.849 551.566L307.829 554.431C307.887 554.602 307.978 554.708 308.143 554.789C308.307 554.869 308.446 554.876 308.618 554.818L318.127 551.567V551.567ZM341.884 529.226L344.997 528.162L344.463 545.818L342.086 546.63L332.841 536.802L331.842 550.132L331.785 550.125L331.818 550.141L329.465 550.945L317.965 537.403L321.053 536.347L328.842 545.279L329.802 533.356L333.135 532.217L341.463 540.964L341.884 529.226ZM358.353 523.596C359.334 523.26 360.26 523.327 361.18 523.778C362.101 524.229 362.728 524.944 363.055 525.899L365.03 531.677L352.017 536.126L352.996 538.99C353.055 539.162 353.145 539.267 353.31 539.348C353.474 539.428 353.614 539.435 353.785 539.377L366.21 535.129L367.206 538.043L354.781 542.29C353.801 542.626 352.875 542.559 351.954 542.108C351.514 541.901 351.12 541.606 350.798 541.241C350.475 540.877 350.231 540.45 350.08 539.987L347.125 531.344C346.79 530.365 346.857 529.44 347.309 528.52C347.761 527.6 348.477 526.972 349.433 526.645L358.353 523.596V523.596ZM351.021 533.212L361.118 529.76L360.138 526.896C360.08 526.724 359.989 526.619 359.825 526.538C359.66 526.458 359.521 526.45 359.349 526.509L350.429 529.559C350.257 529.617 350.151 529.708 350.071 529.873C349.99 530.037 349.983 530.176 350.041 530.347L351.021 533.212V533.212ZM381.664 519.564L381.865 520.152L378.949 521.149L378.748 520.561C378.689 520.39 378.599 520.284 378.434 520.204C378.27 520.123 378.131 520.116 377.959 520.175L369.038 523.224C368.867 523.283 368.761 523.374 368.68 523.538C368.6 523.702 368.592 523.842 368.651 524.013L369.429 526.29C369.488 526.461 369.579 526.567 369.743 526.648C369.908 526.728 370.047 526.735 370.218 526.677L379.139 523.627C380.119 523.292 381.045 523.358 381.966 523.809C382.887 524.26 383.514 524.975 383.841 525.93L384.619 528.207C384.954 529.186 384.887 530.112 384.435 531.032C384.228 531.472 383.932 531.866 383.567 532.188C383.202 532.51 382.774 532.755 382.311 532.906L373.391 535.956C372.41 536.291 371.484 536.225 370.564 535.774C370.123 535.567 369.729 535.272 369.407 534.907C369.085 534.542 368.84 534.115 368.689 533.653L368.488 533.065L371.405 532.068L371.606 532.656C371.664 532.827 371.755 532.933 371.919 533.013C372.084 533.094 372.223 533.101 372.395 533.042L381.315 529.993C381.487 529.934 381.593 529.843 381.673 529.679C381.754 529.515 381.761 529.375 381.703 529.204L380.924 526.927C380.866 526.756 380.775 526.65 380.61 526.569C380.446 526.489 380.307 526.482 380.135 526.54L371.214 529.59C370.234 529.925 369.308 529.859 368.388 529.408C367.947 529.201 367.553 528.906 367.231 528.541C366.909 528.176 366.664 527.75 366.513 527.287L365.735 525.01C365.4 524.031 365.467 523.105 365.918 522.185C366.37 521.265 367.086 520.637 368.042 520.311L376.963 517.261C377.943 516.926 378.869 516.992 379.79 517.443C380.702 517.87 381.33 518.585 381.664 519.564ZM386.635 513.927L395.556 510.878C396.536 510.542 397.462 510.609 398.383 511.06C399.303 511.511 399.931 512.226 400.257 513.181L403.212 521.824C403.547 522.803 403.48 523.728 403.028 524.648C402.82 525.089 402.525 525.482 402.16 525.805C401.795 526.127 401.367 526.371 400.904 526.523L391.983 529.572C391.003 529.908 390.077 529.841 389.157 529.39C388.716 529.183 388.322 528.888 388 528.523C387.678 528.159 387.433 527.732 387.282 527.269L384.327 518.626C383.993 517.647 384.059 516.722 384.511 515.802C384.963 514.882 385.679 514.254 386.635 513.927V513.927ZM396.552 513.791L387.631 516.841C387.46 516.899 387.354 516.99 387.273 517.155C387.192 517.319 387.185 517.458 387.244 517.629L390.198 526.272C390.257 526.444 390.348 526.549 390.512 526.63C390.677 526.71 390.816 526.718 390.987 526.659L399.908 523.609C400.08 523.551 400.186 523.46 400.266 523.295C400.347 523.131 400.354 522.992 400.295 522.821L397.341 514.178C397.282 514.006 397.191 513.901 397.027 513.82C396.871 513.764 396.723 513.733 396.552 513.791ZM421.901 501.871C422.882 501.536 423.808 501.602 424.728 502.053C425.649 502.504 426.276 503.219 426.603 504.174L430.754 516.318L427.862 517.307L423.711 505.163C423.652 504.991 423.561 504.886 423.397 504.805C423.233 504.725 423.069 504.726 422.897 504.785L416.721 506.896C416.55 506.955 416.444 507.046 416.363 507.21C416.283 507.374 416.276 507.513 416.334 507.685L420.486 519.829L417.569 520.826L413.418 508.682C413.359 508.51 413.268 508.405 413.104 508.324C412.94 508.244 412.8 508.236 412.629 508.295L406.428 510.415C406.257 510.473 406.151 510.564 406.07 510.729C405.99 510.893 405.982 511.032 406.041 511.203L410.193 523.348L407.276 524.345L401.928 508.699L421.901 501.871ZM440.65 495.462C441.63 495.127 442.556 495.193 443.476 495.644C444.397 496.095 445.025 496.81 445.351 497.765L447.326 503.543L434.313 507.992L435.292 510.857C435.351 511.028 435.442 511.134 435.606 511.214C435.77 511.295 435.91 511.302 436.081 511.243L448.507 506.995L449.503 509.909L437.077 514.157C436.097 514.492 435.171 514.426 434.25 513.975C433.81 513.767 433.416 513.472 433.094 513.108C432.771 512.743 432.527 512.316 432.376 511.854L429.421 503.211C429.086 502.231 429.153 501.306 429.605 500.386C430.057 499.466 430.773 498.838 431.729 498.512L440.65 495.462V495.462ZM433.317 505.078L443.414 501.627L442.435 498.762C442.376 498.591 442.285 498.485 442.121 498.404C441.956 498.324 441.817 498.317 441.646 498.375L432.725 501.425C432.553 501.484 432.448 501.575 432.367 501.739C432.286 501.903 432.279 502.042 432.338 502.214L433.317 505.078V505.078Z"
        fill="#494368"/>
      <path
        d="M424.703 437.446L376.425 416.323L373.179 423.722L413.405 441.308L292.657 482.587L313.69 444.031L306.594 440.168L281.359 486.449L281.334 486.457L288.926 508.664C292.357 518.703 304.833 523.571 316.72 519.508L339.389 511.758C351.275 507.694 358.16 496.207 354.728 486.169L349.748 471.601L361.512 467.58L366.5 482.172C369.932 492.21 382.408 497.079 394.294 493.015L416.964 485.266C428.85 481.202 435.735 469.715 432.303 459.677L424.703 437.446Z"
        fill="#699D68"/>
      <path
        d="M352.693 554.517L356.459 565.534L353.812 566.439L350.046 555.422C349.945 555.128 349.617 554.967 349.323 555.067L341.235 557.832C340.941 557.933 340.78 558.261 340.88 558.555L344.647 569.573L342 570.478L337.145 556.277L348.419 552.423C349.264 552.134 350.189 552.192 350.99 552.585C351.792 552.978 352.404 553.673 352.693 554.517V554.517ZM365.157 546.701C366.002 546.412 366.927 546.47 367.729 546.863C368.53 547.256 369.143 547.95 369.431 548.795L372.11 556.629C372.398 557.473 372.339 558.398 371.946 559.199C371.552 560 370.857 560.613 370.012 560.901L361.924 563.666C361.079 563.955 360.154 563.897 359.353 563.504C358.551 563.111 357.939 562.417 357.65 561.572L354.972 553.738C354.683 552.893 354.742 551.969 355.136 551.168C355.529 550.367 356.225 549.754 357.07 549.466L365.157 546.701ZM357.974 552.11C357.68 552.21 357.518 552.539 357.619 552.833L360.297 560.668C360.397 560.961 360.726 561.122 361.02 561.022L369.108 558.257C369.402 558.157 369.563 557.828 369.463 557.534L366.784 549.699C366.684 549.406 366.355 549.244 366.061 549.345L357.974 552.11ZM383.026 535.397L389.471 554.249L378.197 558.103C377.352 558.392 376.427 558.334 375.626 557.941C374.824 557.548 374.212 556.854 373.923 556.009L371.245 548.175C370.956 547.33 371.015 546.406 371.409 545.605C371.802 544.804 372.498 544.191 373.343 543.902L381.969 540.953L380.379 536.301L383.026 535.397ZM385.381 552.694C385.675 552.594 385.836 552.265 385.736 551.971L383.057 544.136C382.957 543.842 382.628 543.681 382.334 543.782L374.247 546.547C373.953 546.647 373.791 546.976 373.892 547.27L376.57 555.105C376.67 555.398 376.999 555.559 377.293 555.459L385.381 552.694ZM402.369 537.534L404.161 542.774L392.348 546.812L393.235 549.407C393.336 549.701 393.664 549.862 393.958 549.762L405.232 545.908L406.136 548.552L394.862 552.406C394.017 552.695 393.092 552.637 392.291 552.244C391.489 551.851 390.877 551.156 390.588 550.312L387.91 542.477C387.621 541.633 387.68 540.709 388.074 539.908C388.467 539.107 389.163 538.494 390.008 538.205L398.095 535.441C398.94 535.152 399.865 535.21 400.667 535.603C401.468 535.995 402.081 536.69 402.369 537.534V537.534ZM400.61 541.034L399.723 538.439C399.622 538.145 399.293 537.984 398.999 538.085L390.912 540.85C390.618 540.95 390.456 541.279 390.557 541.573L391.444 544.168L400.61 541.034ZM411.356 546.768L408.709 547.672L407.805 545.028L410.452 544.123L411.356 546.768Z"
        fill="#494368"/>
      <path
        d="M415.47 539.345L418.148 547.18C418.437 548.024 418.378 548.948 417.985 549.75C417.591 550.551 416.895 551.163 416.05 551.452L409.973 553.53L409.069 550.885L415.146 548.808C415.441 548.707 415.602 548.379 415.501 548.085L409.827 531.485L412.473 530.58L415.47 539.345ZM410.866 525.879L411.77 528.523L409.124 529.428L408.22 526.784L410.866 525.879ZM430.541 528.505L427.894 529.41L427.71 528.871C427.61 528.577 427.281 528.416 426.987 528.517L418.899 531.282C418.605 531.382 418.444 531.711 418.544 532.005L419.247 534.061C419.348 534.355 419.677 534.516 419.971 534.416L428.058 531.651C428.903 531.362 429.828 531.42 430.63 531.813C431.431 532.206 432.044 532.9 432.332 533.745L433.035 535.801C433.324 536.645 433.265 537.57 432.872 538.371C432.478 539.172 431.782 539.784 430.937 540.073L422.85 542.838C422.005 543.127 421.08 543.069 420.278 542.676C419.477 542.283 418.864 541.589 418.576 540.744L418.392 540.206L421.039 539.301L421.223 539.84C421.323 540.133 421.652 540.294 421.946 540.194L430.033 537.429C430.328 537.329 430.489 537 430.388 536.706L429.685 534.649C429.585 534.356 429.256 534.195 428.962 534.295L420.875 537.06C420.03 537.349 419.105 537.29 418.303 536.898C417.502 536.505 416.889 535.81 416.601 534.966L415.897 532.91C415.609 532.065 415.668 531.141 416.061 530.34C416.455 529.539 417.15 528.926 417.995 528.637L426.083 525.873C426.928 525.584 427.853 525.642 428.654 526.035C429.456 526.427 430.068 527.122 430.357 527.966L430.541 528.505Z"
        fill="#494368"/>
      <path fill-rule="evenodd" clip-rule="evenodd"
            d="M331.036 497.331C331.119 497.575 331.064 497.813 330.91 498.003L324.908 504.867C324.754 505.056 324.509 505.14 324.246 505.093L315.298 503.339C315.182 503.312 315.075 503.256 314.986 503.176C314.897 503.097 314.828 502.997 314.787 502.885L311.841 494.267C311.757 494.022 311.813 493.784 311.967 493.595L317.969 486.73C318.123 486.541 318.393 486.449 318.63 486.504L327.578 488.258C327.816 488.313 328.014 488.492 328.089 488.712L331.036 497.331ZM408.651 470.797C408.735 471.042 408.679 471.28 408.525 471.469L402.49 478.318C402.336 478.507 402.091 478.591 401.829 478.544L392.881 476.79C392.765 476.762 392.657 476.706 392.568 476.627C392.479 476.548 392.411 476.448 392.37 476.336L389.423 467.717C389.34 467.473 389.395 467.235 389.549 467.045L395.551 460.181C395.705 459.991 395.975 459.899 396.213 459.955L405.161 461.708C405.399 461.764 405.597 461.942 405.672 462.163L408.626 470.805L408.651 470.797Z"
            fill="white"/>
    </g>
  </g>
  <g clip-path="url(#clip2)">
    <path fill-rule="evenodd" clip-rule="evenodd"
          d="M897.512 338.164L899.119 144.901C899.154 142.092 901.479 139.823 904.299 139.832C995.701 140.606 1096.59 147.188 1186.55 142.726C1190.83 141.818 1192.76 144.988 1192.73 149.681L1197.43 433.761L1196.74 516.227C1196.7 519.037 1194.39 521.342 1191.58 521.306L982.575 519.526L901.101 518.834C898.28 518.825 896.012 516.501 896.02 513.68L897.512 338.164Z"
          fill="white"/>
    <path fill-rule="evenodd" clip-rule="evenodd"
          d="M969.576 300.442L1004.89 110.454C1005.4 107.668 1008.08 105.835 1010.84 106.337L1235.25 148.075L1286.52 157.957C1289.59 157.785 1293.4 160.708 1292.23 166.987L1248.23 446.9L1233.14 527.969C1232.64 530.728 1229.95 532.588 1227.19 532.086L1021.71 493.872L941.585 478.987C938.835 478.458 936.975 475.768 937.477 473.009L969.576 300.442Z"
          fill="white"/>
    <path fill-rule="evenodd" clip-rule="evenodd"
          d="M1048.15 269.586L984.74 441.368C983.725 444.12 985.13 447.219 987.883 448.235L1067.64 477.678L1185.71 521.264L1202.68 527.527L1272.2 553.192C1274.95 554.208 1278.03 552.765 1279.05 550.014L1308.84 469.305L1391.14 246.362L1392 244.037L1341.24 225.297C1336.35 223.492 1325.94 220.438 1330.03 209.351L1348.22 159.754L1124.82 77.2859C1122.07 76.2698 1118.99 77.6854 1117.98 80.4369L1102.15 123.316L1095.45 141.456L1048.15 269.586Z"
          fill="white"/>
    <path fill-rule="evenodd" clip-rule="evenodd"
          d="M999.028 141.956C966.888 141.019 935.046 140.102 904.3 139.832C901.479 139.823 899.155 142.091 899.119 144.902L897.513 338.164L896.022 513.681C896.013 516.5 898.282 518.826 901.102 518.835L982.577 519.526L1168.22 521.12L999.028 141.956Z"
          fill="#B5C4CF"/>
    <path fill-rule="evenodd" clip-rule="evenodd"
          d="M1102.15 123.318L1010.84 106.337C1008.08 105.834 1005.4 107.668 1004.89 110.453L999.028 141.955L969.576 300.441L937.478 473.008C936.975 475.766 938.836 478.457 941.586 478.986L1021.71 493.871L1168.21 521.119L1202.67 527.527L1185.71 521.264L1102.15 123.318Z"
          fill="#D7E7EC"/>
    <path fill-rule="evenodd" clip-rule="evenodd"
          d="M1308.84 469.305L1391.14 246.362L1392 244.037L1392.29 243.262C1392.82 241.819 1392.29 241.352 1390.88 238.369L1355.37 165.884C1353.68 162.469 1353.48 161.697 1351.96 161.134L1348.22 159.754L1124.82 77.2859C1122.07 76.2698 1118.99 77.6854 1117.98 80.4369L984.741 441.366C983.725 444.118 985.131 447.218 987.883 448.234L1272.2 553.19C1274.95 554.206 1278.03 552.763 1279.05 550.011L1308.84 469.305Z"
          fill="#EDF3F4"/>
    <path fill-rule="evenodd" clip-rule="evenodd"
          d="M1102.15 123.318L1080.76 119.337L957.806 452.403C956.781 455.182 958.196 458.254 960.949 459.27L1040.7 488.712L1088.16 506.23L1168.21 521.121L1202.68 527.528L1185.71 521.265L1164.84 513.562L1067.64 477.679L987.882 448.237C985.13 447.221 983.724 444.121 984.74 441.369C1023.87 335.36 1063.02 229.325 1102.15 123.318V123.318Z"
          fill="#B5C4CF"/>
    <path fill-rule="evenodd" clip-rule="evenodd"
          d="M969.576 300.441L999.027 141.955C991.248 141.725 983.497 141.504 975.772 141.293L972.117 160.981L942.666 319.467L910.595 492.043C910.066 494.792 911.926 497.483 914.676 498.012L994.797 512.896L1032.8 519.976L1154.78 520.988L1154.24 518.51L1088.16 506.228L1021.71 493.871L941.585 478.986C938.835 478.457 936.975 475.767 937.477 473.008L969.576 300.441Z"
          fill="#9AAFB7"/>
    <path fill-rule="evenodd" clip-rule="evenodd"
          d="M1308.84 469.305L1391.14 246.361L1392 244.037C1393 241.339 1392.13 240.986 1390.88 238.369L1355.37 165.883C1353.68 162.468 1353.48 161.696 1351.96 161.134L1348.22 159.753L1292.61 139.228C1326.99 255.25 1270.35 420.609 1182.16 504.318C1178.08 508.215 1173.96 511.886 1169.79 515.383L1185.71 521.262L1202.68 527.525L1272.2 553.19C1274.95 554.206 1278.04 552.763 1279.05 550.012L1308.84 469.305L1308.84 469.305Z"
          fill="#D7E7EC"/>
    <path fill-rule="evenodd" clip-rule="evenodd"
          d="M1330.03 209.351C1325.94 220.438 1336.35 223.492 1341.23 225.297L1392 244.037L1392.29 243.262C1392.82 241.82 1392.29 241.353 1390.88 238.37L1355.37 165.884C1353.68 162.469 1353.48 161.697 1351.96 161.135L1348.22 159.754L1330.03 209.351Z"
          fill="white"/>
    <path fill-rule="evenodd" clip-rule="evenodd"
          d="M1390.88 238.37L1355.37 165.884C1353.68 162.469 1353.48 161.697 1351.96 161.135L1348.22 159.754L1330.03 209.351C1325.94 220.438 1336.35 223.492 1341.24 225.297L1392 244.037L1392.29 243.262C1392.82 241.82 1392.29 241.353 1390.88 238.37V238.37Z"
          fill="#B5C4CF"/>
    <path
      d="M1398.3 236.473C1398.11 236.099 1361.55 161.466 1361.55 161.466C1360.16 158.6 1358.72 155.638 1354.55 154.1L1127.42 70.2516C1120.78 67.8025 1113.39 71.2078 1110.94 77.8413L1097.3 114.787L1012.18 98.9578C1005.35 97.7147 998.769 102.263 997.514 109.083L992.832 134.272C963.579 133.423 933.532 132.588 904.323 132.332C897.406 132.31 891.707 137.905 891.618 144.839L890.274 306.386C890.246 309.636 892.291 312.421 895.176 313.486C895.966 313.777 896.82 313.94 897.711 313.947C901.853 313.982 905.239 310.652 905.274 306.51L906.598 147.353C934.107 147.623 962.412 148.398 990.059 149.199L962.204 299.071L930.1 471.665C928.99 477.766 932.521 483.703 938.206 485.801C938.85 486.039 939.522 486.228 940.217 486.361L1020.34 501.245L1082.94 512.888L982.639 512.027L903.541 511.356L904.993 340.497C905.029 336.355 901.7 332.97 897.557 332.934C893.415 332.898 890.03 336.228 889.994 340.37L888.52 513.656C888.503 519.116 891.957 523.789 896.774 525.568C898.105 526.059 899.541 526.329 901.036 526.334L982.509 527.026L1167.5 528.613L1200.68 534.783L1269.6 560.227C1276.23 562.676 1283.63 559.259 1286.08 552.61L1399.32 245.86C1400.88 241.649 1399.39 238.657 1398.3 236.473V236.473ZM1379.04 231.258L1343.83 218.261L1342.96 217.943C1341.27 217.332 1337.31 215.904 1336.68 214.54C1336.53 214.225 1336.54 213.358 1337.07 211.933L1350.98 173.989L1379.04 231.258ZM1272.76 545.402L992.52 441.951L1043.14 304.829C1044.57 300.943 1042.59 296.63 1038.7 295.196C1034.81 293.761 1030.5 295.749 1029.07 299.634L977.705 438.77C975.25 445.419 978.651 452.821 985.286 455.27L1117.38 504.035L1023.08 486.496L945.286 472.045L976.951 301.812L1011.83 114.148L1092.03 129.063L1041.12 266.988C1039.68 270.873 1041.67 275.186 1045.56 276.621C1049.44 278.055 1053.76 276.068 1055.19 272.182L1124.26 85.075L1338.6 164.198L1322.99 206.753C1321.09 211.907 1321.12 216.655 1323.08 220.866C1326.09 227.335 1332.68 230.142 1336.85 231.68C1337.2 231.813 1337.55 231.935 1337.86 232.051L1382.37 248.476L1272.76 545.402Z"
      fill="black"/>
    <path
      d="M1291.74 376.639L1090.58 302.378C1086.69 300.944 1084.7 296.631 1086.14 292.745C1087.57 288.859 1091.88 286.872 1095.77 288.306L1296.94 362.568C1300.82 364.002 1302.81 368.315 1301.38 372.201C1299.94 376.086 1295.63 378.074 1291.74 376.639Z"
      fill="black"/>
    <path
      d="M1273.29 426.624L1072.12 352.362C1068.24 350.928 1066.25 346.615 1067.68 342.729C1069.12 338.844 1073.43 336.856 1077.32 338.291L1278.48 412.552C1282.37 413.986 1284.36 418.299 1282.92 422.185C1281.49 426.071 1277.18 428.058 1273.29 426.624Z"
      fill="black"/>
    <path
      d="M1254.84 476.609L1053.67 402.348C1049.79 400.913 1047.8 396.6 1049.23 392.715C1050.67 388.829 1054.98 386.842 1058.87 388.276L1260.03 462.537C1263.92 463.972 1265.91 468.285 1264.47 472.171C1263.04 476.056 1258.72 478.043 1254.84 476.609Z"
      fill="black"/>
    <g clip-path="url(#clip3)">
      <path
        d="M1148.46 253.888C1149.53 254.279 1150.28 254.974 1150.76 255.994C1151.23 257.013 1151.28 258.056 1150.9 259.096L1146.07 272.321L1132.51 267.375C1131.44 266.985 1130.7 266.289 1130.22 265.27C1129.74 264.25 1129.7 263.207 1130.08 262.167L1132.37 255.875L1146.58 261.055L1147.72 257.935C1147.78 257.749 1147.78 257.596 1147.69 257.414C1147.61 257.232 1147.49 257.13 1147.31 257.061L1133.75 252.115L1134.9 248.942L1148.46 253.888ZM1144.05 267.987L1145.42 264.228L1134.4 260.208L1133.26 263.328C1133.19 263.515 1133.2 263.667 1133.28 263.849C1133.37 264.032 1133.48 264.134 1133.67 264.202L1144.05 267.987V267.987ZM1179.79 265.312L1183.18 266.551L1170.55 281.247L1167.95 280.301L1166.82 265.539L1156.77 276.223L1156.73 276.177L1156.75 276.213L1154.18 275.277L1153.68 255.791L1157.05 257.02L1157.55 270.012L1166.6 260.503L1170.24 261.829L1171.33 275.037L1179.79 265.312ZM1197.76 271.868C1198.83 272.258 1199.58 272.953 1200.05 273.973C1200.53 274.992 1200.57 276.036 1200.19 277.075L1197.9 283.368L1183.7 278.188L1182.56 281.307C1182.49 281.494 1182.49 281.647 1182.58 281.829C1182.67 282.011 1182.78 282.113 1182.97 282.181L1196.53 287.127L1195.37 290.3L1181.81 285.354C1180.74 284.964 1179.99 284.269 1179.52 283.249C1179.04 282.229 1179 281.186 1179.38 280.146L1182.81 270.734C1183.2 269.668 1183.89 268.925 1184.91 268.451C1185.93 267.978 1186.98 267.936 1188.02 268.317L1197.76 271.868V271.868ZM1184.85 275.015L1195.87 279.034L1197.01 275.915C1197.08 275.728 1197.07 275.575 1196.99 275.393C1196.9 275.211 1196.79 275.109 1196.6 275.041L1186.87 271.49C1186.68 271.421 1186.53 271.426 1186.34 271.51C1186.16 271.595 1186.06 271.709 1185.99 271.895L1184.85 275.015V275.015ZM1220.49 284.506L1220.25 285.146L1217.07 283.985L1217.3 283.346C1217.37 283.159 1217.37 283.006 1217.28 282.824C1217.2 282.642 1217.08 282.54 1216.89 282.472L1207.16 278.921C1206.97 278.852 1206.82 278.857 1206.64 278.941C1206.45 279.026 1206.35 279.14 1206.28 279.326L1205.38 281.806C1205.31 281.993 1205.31 282.145 1205.4 282.327C1205.49 282.51 1205.6 282.612 1205.79 282.68L1215.52 286.231C1216.59 286.621 1217.34 287.316 1217.82 288.336C1218.29 289.356 1218.34 290.399 1217.96 291.439L1217.05 293.918C1216.66 294.985 1215.97 295.728 1214.95 296.202C1213.93 296.675 1212.88 296.716 1211.84 296.336L1202.1 292.785C1201.03 292.395 1200.28 291.7 1199.81 290.68C1199.33 289.66 1199.29 288.617 1199.67 287.577L1199.9 286.937L1203.08 288.098L1202.85 288.738C1202.78 288.925 1202.79 289.078 1202.87 289.26C1202.96 289.442 1203.07 289.544 1203.26 289.612L1212.99 293.163C1213.18 293.231 1213.33 293.227 1213.52 293.142C1213.7 293.058 1213.8 292.944 1213.87 292.757L1214.77 290.278C1214.84 290.091 1214.84 289.938 1214.75 289.756C1214.67 289.574 1214.55 289.472 1214.37 289.404L1204.63 285.853C1203.56 285.463 1202.81 284.767 1202.34 283.748C1201.86 282.728 1201.82 281.685 1202.2 280.645L1203.1 278.165C1203.49 277.099 1204.18 276.356 1205.21 275.882C1206.23 275.409 1207.27 275.367 1208.31 275.748L1218.05 279.299C1219.12 279.689 1219.87 280.384 1220.34 281.404C1220.83 282.397 1220.87 283.44 1220.49 284.506ZM1228.63 283.125L1238.36 286.676C1239.43 287.067 1240.18 287.762 1240.66 288.782C1241.13 289.801 1241.18 290.844 1240.8 291.884L1237.36 301.296C1236.97 302.363 1236.28 303.106 1235.26 303.579C1234.24 304.053 1233.19 304.094 1232.15 303.714L1222.41 300.163C1221.34 299.773 1220.6 299.077 1220.12 298.058C1219.64 297.038 1219.6 295.995 1219.98 294.955L1223.41 285.543C1223.8 284.477 1224.49 283.733 1225.52 283.26C1226.54 282.787 1227.58 282.745 1228.63 283.125V283.125ZM1237.2 289.849L1227.47 286.298C1227.28 286.23 1227.13 286.235 1226.95 286.319C1226.76 286.404 1226.66 286.517 1226.59 286.704L1223.16 296.116C1223.09 296.303 1223.1 296.455 1223.18 296.637C1223.27 296.82 1223.38 296.922 1223.57 296.99L1233.31 300.541C1233.49 300.609 1233.65 300.605 1233.83 300.52C1234.01 300.436 1234.11 300.322 1234.18 300.135L1237.61 290.723C1237.68 290.537 1237.68 290.384 1237.59 290.202C1237.5 290.046 1237.39 289.918 1237.2 289.849ZM1267.12 297.164C1268.19 297.554 1268.93 298.249 1269.41 299.269C1269.89 300.288 1269.93 301.331 1269.55 302.371L1264.73 315.596L1261.57 314.445L1266.39 301.22C1266.46 301.033 1266.46 300.881 1266.37 300.699C1266.29 300.516 1266.15 300.405 1265.96 300.336L1259.22 297.878C1259.03 297.81 1258.88 297.814 1258.7 297.899C1258.51 297.983 1258.41 298.097 1258.34 298.284L1253.52 311.508L1250.34 310.347L1255.16 297.123C1255.23 296.936 1255.22 296.783 1255.14 296.601C1255.05 296.419 1254.94 296.317 1254.75 296.249L1247.98 293.781C1247.8 293.712 1247.64 293.717 1247.46 293.801C1247.28 293.886 1247.18 294 1247.11 294.186L1242.29 307.411L1239.1 306.25L1245.32 289.213L1267.12 297.164ZM1287.58 304.626C1288.65 305.017 1289.39 305.712 1289.87 306.732C1290.35 307.751 1290.39 308.794 1290.01 309.834L1287.72 316.127L1273.51 310.946L1272.38 314.066C1272.31 314.253 1272.31 314.405 1272.4 314.587C1272.48 314.77 1272.6 314.872 1272.78 314.94L1286.35 319.886L1285.19 323.059L1271.63 318.113C1270.56 317.723 1269.81 317.027 1269.33 316.008C1268.86 314.988 1268.81 313.945 1269.19 312.905L1272.63 303.493C1273.01 302.427 1273.71 301.683 1274.73 301.21C1275.75 300.737 1276.8 300.695 1277.84 301.075L1287.58 304.626V304.626ZM1274.67 307.774L1285.69 311.793L1286.83 308.673C1286.9 308.487 1286.89 308.334 1286.81 308.152C1286.72 307.97 1286.61 307.868 1286.42 307.799L1276.68 304.248C1276.5 304.18 1276.34 304.185 1276.16 304.269C1275.98 304.354 1275.88 304.467 1275.81 304.654L1274.67 307.774V307.774Z"
        fill="#494368"/>
      <path
        d="M1313.95 244.127L1287.21 192.807L1279.33 196.881L1301.62 239.63L1169.83 191.565L1214.42 173.177L1211.01 164.987L1157.5 187.068L1157.47 187.058L1148.65 211.241C1144.67 222.173 1151.98 234.931 1164.96 239.663L1189.7 248.686C1202.67 253.418 1216.48 248.366 1220.47 237.434L1226.27 221.543L1239.1 226.226L1233.31 242.117C1229.32 253.049 1236.64 265.807 1249.61 270.539L1274.35 279.562C1287.33 284.294 1301.14 279.242 1305.13 268.31L1313.95 244.127Z"
        fill="#FC60A8"/>
    </g>
  </g>
  <g clip-path="url(#clip4)">
    <path fill-rule="evenodd" clip-rule="evenodd"
          d="M1650.65 575.057L1719.06 394.299C1720.07 391.675 1723.03 390.352 1725.67 391.336C1811.16 423.702 1903.53 464.8 1989.47 491.757C1993.81 492.387 1994.52 496.029 1992.86 500.42L1898.93 768.563L1869.74 845.692C1868.73 848.316 1865.77 849.68 1863.14 848.674L1667.67 774.651L1591.48 745.8C1588.83 744.815 1587.51 741.849 1588.49 739.205L1650.65 575.057Z"
          fill="white"/>
    <path fill-rule="evenodd" clip-rule="evenodd"
          d="M1731.32 564.613L1830.21 398.595C1831.66 396.159 1834.81 395.367 1837.22 396.793L2033.31 513.632L2077.99 540.652C2080.93 541.553 2083.49 545.614 2080.22 551.102L1942.04 798.475L1899.83 869.311C1898.4 871.726 1895.24 872.54 1892.82 871.113L1713.27 764.129L1643.25 722.43C1640.86 720.982 1640.04 717.814 1641.47 715.399L1731.32 564.613Z"
          fill="white"/>
    <path fill-rule="evenodd" clip-rule="evenodd"
          d="M1815.72 562.866L1696.76 702.075C1694.86 704.305 1695.1 707.7 1697.33 709.606L1761.97 764.836L1857.65 846.6L1871.4 858.349L1927.74 906.494C1929.97 908.4 1933.36 908.113 1935.27 905.883L1991.16 840.478L2145.54 659.808L2147.15 657.924L2106.01 622.769C2102.05 619.383 2093.34 612.914 2101.02 603.93L2135.25 563.695L1954.21 408.993C1951.98 407.087 1948.61 407.352 1946.7 409.581L1917.01 444.33L1904.45 459.031L1815.72 562.866Z"
          fill="white"/>
    <path fill-rule="evenodd" clip-rule="evenodd"
          d="M1813.81 426.12C1783.98 414.117 1754.43 402.233 1725.68 391.336C1723.03 390.351 1720.07 391.675 1719.06 394.299L1650.65 575.058L1588.5 739.206C1587.51 741.848 1588.84 744.816 1591.48 745.801L1667.68 774.652L1841.29 840.41L1813.81 426.12Z"
          fill="#B5C4CF"/>
    <path fill-rule="evenodd" clip-rule="evenodd"
          d="M1917.01 444.332L1837.22 396.793C1834.81 395.366 1831.66 396.159 1830.22 398.594L1813.81 426.12L1731.32 564.612L1641.47 715.398C1640.04 717.812 1640.86 720.981 1643.25 722.429L1713.27 764.128L1841.28 840.407L1871.4 858.348L1857.65 846.6L1917.01 444.332Z"
          fill="#D7E7EC"/>
    <path fill-rule="evenodd" clip-rule="evenodd"
          d="M1991.16 840.478L2145.54 659.807L2147.15 657.924L2147.69 657.296C2148.69 656.126 2148.36 655.506 2148.06 652.217L2139.84 571.92C2139.44 568.133 2139.52 567.34 2138.28 566.285L2135.25 563.695L1954.21 408.993C1951.98 407.087 1948.61 407.352 1946.7 409.581L1696.76 702.074C1694.86 704.304 1695.1 707.698 1697.33 709.604L1927.74 906.491C1929.97 908.397 1933.36 908.111 1935.27 905.881L1991.16 840.478Z"
          fill="#EDF3F4"/>
    <path fill-rule="evenodd" clip-rule="evenodd"
          d="M1917.01 444.332L1898.32 433.193L1667.67 703.104C1665.75 705.356 1666.01 708.728 1668.24 710.635L1732.88 765.865L1771.33 798.726L1841.29 840.409L1871.4 858.35L1857.65 846.601L1840.74 832.15L1761.96 764.837L1697.33 709.607C1695.1 707.701 1694.86 704.306 1696.76 702.076C1770.17 616.168 1843.6 530.239 1917.01 444.332V444.332Z"
          fill="#B5C4CF"/>
    <path fill-rule="evenodd" clip-rule="evenodd"
          d="M1731.32 564.613L1813.81 426.12C1806.59 423.212 1799.4 420.321 1792.22 417.45L1781.98 434.655L1699.49 573.147L1609.66 723.952C1608.21 726.348 1609.02 729.516 1611.42 730.965L1681.44 772.664L1714.64 792.463L1828.73 835.636L1829.08 833.124L1771.33 798.725L1713.27 764.129L1643.25 722.43C1640.86 720.982 1640.04 717.814 1641.47 715.399L1731.32 564.613Z"
          fill="#9AAFB7"/>
    <path fill-rule="evenodd" clip-rule="evenodd"
          d="M1991.16 840.478L2145.54 659.808L2147.15 657.924C2149.02 655.737 2148.32 655.105 2148.06 652.217L2139.84 571.92C2139.44 568.133 2139.52 567.34 2138.28 566.285L2135.25 563.695L2090.19 525.19C2082.28 645.94 1971.9 781.468 1860.18 829.473C1855.01 831.716 1849.87 833.735 1844.75 835.571L1857.65 846.599L1871.4 858.348L1927.74 906.493C1929.97 908.399 1933.36 908.112 1935.27 905.882L1991.16 840.479L1991.16 840.478Z"
          fill="#D7E7EC"/>
    <path fill-rule="evenodd" clip-rule="evenodd"
          d="M2101.02 603.93C2093.34 612.914 2102.05 619.383 2106.01 622.769L2147.15 657.924L2147.69 657.296C2148.69 656.127 2148.36 655.507 2148.06 652.217L2139.83 571.921C2139.44 568.134 2139.52 567.34 2138.28 566.285L2135.25 563.695L2101.02 603.93Z"
          fill="white"/>
    <path fill-rule="evenodd" clip-rule="evenodd"
          d="M2148.06 652.217L2139.83 571.921C2139.44 568.134 2139.52 567.34 2138.28 566.285L2135.25 563.695L2101.02 603.931C2093.34 612.915 2102.05 619.384 2106.01 622.769L2147.15 657.924L2147.69 657.296C2148.69 656.127 2148.36 655.507 2148.06 652.217V652.217Z"
          fill="#B5C4CF"/>
    <path
      d="M2155.68 653.007C2155.63 652.592 2147.17 569.918 2147.17 569.918C2146.86 566.747 2146.53 563.469 2143.15 560.585L1959.08 403.293C1953.71 398.699 1945.59 399.335 1941 404.711L1915.42 434.651L1841.04 390.335C1835.06 386.804 1827.31 388.792 1823.77 394.756L1810.66 416.768C1783.51 405.845 1755.61 394.66 1728.29 384.308C1721.81 381.893 1714.53 385.17 1712.04 391.644L1654.86 542.737C1653.71 545.778 1654.67 549.098 1657 551.096C1657.64 551.643 1658.39 552.091 1659.22 552.406C1663.1 553.873 1667.42 551.921 1668.89 548.047L1725.23 399.188C1750.94 408.964 1777.23 419.489 1802.89 429.811L1724.88 560.775L1635.01 711.585C1631.86 716.924 1633.12 723.716 1637.72 727.653C1638.24 728.099 1638.81 728.508 1639.42 728.874L1709.43 770.573L1764.13 803.166L1670.33 767.638L1596.36 739.628L1656.86 579.835C1658.33 575.962 1656.38 571.634 1652.5 570.166C1648.63 568.699 1644.3 570.65 1642.84 574.524L1581.47 736.586C1579.56 741.703 1581.18 747.283 1585.09 750.619C1586.17 751.54 1587.42 752.291 1588.82 752.813L1665.02 781.665L1838.02 847.192L1867.01 864.464L1922.86 912.194C1928.24 916.789 1936.36 916.143 1940.97 910.755L2153.39 662.168C2156.31 658.756 2155.94 655.433 2155.68 653.007V653.007ZM2139.42 641.449L2110.88 617.067L2110.17 616.466C2108.8 615.308 2105.58 612.599 2105.46 611.1C2105.43 610.753 2105.74 609.944 2106.73 608.79L2132.92 578.008L2139.42 641.449ZM1930.96 899.378L1703.86 705.316L1798.81 594.194C1801.51 591.045 1801.13 586.31 1797.98 583.62C1794.84 580.929 1790.1 581.3 1787.41 584.449L1691.06 697.202C1686.46 702.591 1687.08 710.713 1692.46 715.307L1799.51 806.784L1717.11 757.684L1649.13 717.198L1737.76 568.451L1835.45 404.464L1905.53 446.22L1810.02 557.992C1807.33 561.141 1807.7 565.875 1810.85 568.566C1814 571.257 1818.73 570.886 1821.42 567.737L1950.99 416.108L2124.69 564.535L2095.32 599.057C2091.75 603.234 2090.13 607.698 2090.51 612.326C2091.09 619.437 2096.31 624.353 2099.68 627.239C2099.98 627.487 2100.25 627.72 2100.51 627.939L2136.58 658.754L1930.96 899.378Z"
      fill="black"/>
    <path
      d="M2007.19 747.622L1844.17 608.315C1841.02 605.624 1840.65 600.89 1843.34 597.741C1846.03 594.592 1850.76 594.221 1853.91 596.911L2016.93 736.218C2020.08 738.909 2020.45 743.643 2017.76 746.792C2015.07 749.941 2010.34 750.313 2007.19 747.622Z"
      fill="black"/>
    <path
      d="M1972.57 788.129L1809.55 648.822C1806.4 646.131 1806.03 641.397 1808.72 638.248C1811.41 635.099 1816.15 634.727 1819.3 637.418L1982.32 776.725C1985.47 779.416 1985.84 784.15 1983.15 787.299C1980.46 790.448 1975.72 790.819 1972.57 788.129Z"
      fill="black"/>
    <path
      d="M1937.96 828.635L1774.94 689.329C1771.79 686.638 1771.42 681.903 1774.11 678.755C1776.8 675.606 1781.53 675.234 1784.68 677.925L1947.7 817.232C1950.85 819.923 1951.23 824.657 1948.53 827.806C1945.84 830.955 1941.11 831.326 1937.96 828.635Z"
      fill="black"/>
    <g clip-path="url(#clip5)">
      <path
        d="M1955.37 570.108C1955.44 569.836 1955.65 569.43 1956 568.889C1954.55 569.044 1953.29 568.672 1952.22 567.774C1951.27 566.971 1950.7 566.041 1950.54 564.986C1950.38 563.929 1950.66 562.984 1951.35 562.152C1952.2 561.14 1953.24 560.677 1954.48 560.763C1955.72 560.847 1957.04 561.474 1958.43 562.643L1960.05 563.998L1960.69 563.235C1961.18 562.654 1961.39 562.047 1961.33 561.415C1961.27 560.777 1960.91 560.174 1960.23 559.607C1959.64 559.11 1959.01 558.843 1958.36 558.806C1957.71 558.77 1957.21 558.964 1956.85 559.389L1955.18 557.989C1955.59 557.504 1956.15 557.18 1956.87 557.017C1957.59 556.853 1958.36 556.885 1959.17 557.113C1959.98 557.347 1960.74 557.759 1961.45 558.352C1962.57 559.29 1963.21 560.307 1963.37 561.401C1963.54 562.49 1963.23 563.536 1962.43 564.538L1958.68 569.01C1957.93 569.902 1957.45 570.707 1957.24 571.425L1957.12 571.569L1955.37 570.108ZM1953.68 566.531C1954.2 566.968 1954.81 567.247 1955.5 567.369C1956.19 567.491 1956.82 567.424 1957.39 567.169L1959.07 565.175L1957.76 564.083C1955.73 562.377 1954.21 562.12 1953.21 563.311C1952.77 563.832 1952.61 564.385 1952.71 564.969C1952.81 565.554 1953.13 566.074 1953.68 566.531ZM1969.9 578.387L1978 572.525L1979.66 573.918L1968.68 581.264L1967.34 580.135L1971.15 570.791L1962.68 576.228L1961.33 575.099L1966.65 563.018L1968.31 564.403L1964.12 573.281L1972.48 567.903L1973.82 569.025L1969.9 578.387ZM1977.09 588.618C1975.78 587.514 1975.06 586.184 1974.96 584.629C1974.86 583.069 1975.42 581.564 1976.63 580.115L1976.89 579.809C1977.7 578.845 1978.6 578.139 1979.6 577.691C1980.61 577.242 1981.62 577.08 1982.63 577.207C1983.66 577.333 1984.56 577.72 1985.33 578.367C1986.6 579.426 1987.23 580.665 1987.23 582.085C1987.23 583.504 1986.59 584.989 1985.29 586.54L1984.71 587.232L1978.12 581.714C1977.34 582.692 1976.97 583.701 1977.01 584.74C1977.06 585.779 1977.49 586.644 1978.32 587.337C1978.91 587.828 1979.5 588.125 1980.11 588.227C1980.72 588.329 1981.34 588.31 1981.98 588.171L1982.33 589.812C1980.47 590.381 1978.72 589.983 1977.09 588.618ZM1984.19 579.733C1983.52 579.17 1982.75 578.944 1981.88 579.054C1981.02 579.157 1980.17 579.604 1979.32 580.394L1984.19 584.474L1984.29 584.348C1984.95 583.464 1985.27 582.62 1985.25 581.818C1985.24 581.01 1984.88 580.315 1984.19 579.733ZM1990.78 595.398C1991.16 594.949 1991.28 594.458 1991.14 593.927C1991.02 593.394 1990.61 592.684 1989.92 591.797C1989.23 590.915 1988.74 590.14 1988.46 589.472C1988.18 588.809 1988.06 588.203 1988.11 587.655C1988.17 587.112 1988.4 586.601 1988.8 586.122C1989.47 585.326 1990.37 584.933 1991.5 584.945C1992.64 584.961 1993.73 585.408 1994.78 586.286C1995.88 587.21 1996.54 588.242 1996.74 589.383C1996.95 590.529 1996.69 591.545 1995.95 592.431L1994.27 591.031C1994.66 590.576 1994.79 590.02 1994.68 589.365C1994.57 588.714 1994.22 588.143 1993.64 587.651C1993.03 587.145 1992.45 586.88 1991.89 586.857C1991.32 586.835 1990.86 587.036 1990.51 587.461C1990.17 587.862 1990.08 588.298 1990.22 588.767C1990.37 589.237 1990.78 589.911 1991.45 590.789C1992.13 591.672 1992.61 592.458 1992.91 593.147C1993.21 593.836 1993.33 594.466 1993.27 595.037C1993.22 595.607 1992.98 596.153 1992.54 596.674C1991.81 597.542 1990.88 597.948 1989.75 597.893C1988.62 597.832 1987.5 597.337 1986.39 596.409C1985.61 595.756 1985.04 595.041 1984.67 594.264C1984.3 593.487 1984.15 592.71 1984.22 591.933C1984.3 591.155 1984.59 590.478 1985.07 589.903L1986.73 591.296C1986.29 591.878 1986.14 592.507 1986.28 593.182C1986.43 593.857 1986.84 594.48 1987.52 595.052C1988.15 595.579 1988.76 595.875 1989.35 595.94C1989.95 596.004 1990.43 595.823 1990.78 595.398ZM1996.16 595.865C1996.95 594.912 1997.86 594.212 1998.87 593.763C1999.88 593.318 2000.89 593.168 2001.9 593.312C2002.92 593.461 2003.86 593.894 2004.71 594.612C2006.04 595.721 2006.72 597.075 2006.77 598.673C2006.82 600.277 2006.21 601.839 2004.94 603.36L2004.84 603.477C2004.04 604.423 2003.15 605.12 2002.15 605.568C2001.16 606.016 2000.16 606.165 1999.13 606.017C1998.11 605.874 1997.16 605.437 1996.29 604.704C1994.97 603.6 1994.28 602.246 1994.23 600.642C1994.18 599.044 1994.79 597.49 1996.06 595.981L1996.16 595.865ZM1997.66 597.462C1996.76 598.54 1996.28 599.613 1996.23 600.683C1996.19 601.757 1996.58 602.645 1997.42 603.348C1998.27 604.055 1999.21 604.288 2000.26 604.046C2001.32 603.798 2002.34 603.078 2003.34 601.887C2004.23 600.821 2004.7 599.745 2004.75 598.66C2004.8 597.574 2004.41 596.68 2003.57 595.977C2002.75 595.289 2001.81 595.061 2000.76 595.292C1999.71 595.523 1998.68 596.247 1997.66 597.462ZM2012.65 601.566L2011.79 602.682C2013.2 602.441 2014.52 602.827 2015.72 603.841C2017.08 604.98 2017.57 606.276 2017.19 607.729C2017.91 607.533 2018.64 607.507 2019.4 607.652C2020.16 607.801 2020.89 608.171 2021.6 608.764C2023.73 610.55 2023.87 612.587 2022.01 614.875L2016.55 621.386L2014.89 619.993L2020.27 613.581C2020.85 612.886 2021.13 612.235 2021.09 611.628C2021.07 611.015 2020.68 610.395 2019.93 609.767C2019.32 609.25 2018.65 609.007 2017.93 609.037C2017.22 609.061 2016.57 609.357 2015.98 609.924L2010.57 616.373L2008.9 614.973L2014.24 608.605C2015.42 607.192 2015.32 605.906 2013.94 604.746C2012.85 603.833 2011.72 603.672 2010.54 604.264L2004.59 611.359L2002.93 609.967L2011.07 600.249L2012.65 601.566ZM2022.95 627.053C2021.63 625.949 2020.92 624.62 2020.82 623.065C2020.72 621.504 2021.28 620 2022.49 618.551L2022.75 618.245C2023.56 617.281 2024.46 616.575 2025.46 616.127C2026.47 615.677 2027.48 615.516 2028.49 615.643C2029.52 615.769 2030.42 616.156 2031.19 616.803C2032.45 617.862 2033.09 619.101 2033.09 620.521C2033.09 621.94 2032.44 623.425 2031.15 624.976L2030.57 625.667L2023.98 620.15C2023.2 621.128 2022.83 622.137 2022.87 623.176C2022.91 624.214 2023.35 625.08 2024.18 625.772C2024.76 626.264 2025.36 626.561 2025.97 626.663C2026.58 626.764 2027.2 626.746 2027.84 626.606L2028.19 628.247C2026.33 628.816 2024.58 628.418 2022.95 627.053ZM2030.05 618.168C2029.38 617.606 2028.61 617.38 2027.74 617.49C2026.88 617.593 2026.03 618.04 2025.18 618.83L2030.05 622.91L2030.15 622.784C2030.81 621.899 2031.13 621.056 2031.11 620.254C2031.1 619.446 2030.74 618.75 2030.05 618.168Z"
        fill="#878B94"/>
      <path
        d="M1944.84 584.955L1940.62 581.415L1934.52 588.689L1932.14 586.691L1947.21 568.71L1953.16 573.699C1955.19 575.397 1956.36 577.162 1956.67 578.995C1956.99 580.835 1956.42 582.635 1954.94 584.397C1954 585.517 1952.88 586.237 1951.57 586.558C1950.27 586.886 1948.91 586.804 1947.49 586.311L1945.32 597.483L1945.19 597.631L1942.65 595.499L1944.84 584.955ZM1942.24 579.476L1945.89 582.529C1947.06 583.516 1948.25 583.995 1949.46 583.965C1950.67 583.942 1951.7 583.42 1952.56 582.4C1953.49 581.288 1953.87 580.157 1953.7 579.005C1953.54 577.86 1952.83 576.759 1951.59 575.702L1947.96 572.659L1942.24 579.476ZM1952.72 604.358C1950.91 602.84 1949.93 601.012 1949.79 598.874C1949.65 596.728 1950.42 594.659 1952.09 592.666L1952.44 592.246C1953.55 590.921 1954.79 589.95 1956.16 589.334C1957.55 588.716 1958.94 588.494 1960.34 588.669C1961.75 588.842 1962.98 589.373 1964.05 590.264C1965.78 591.72 1966.65 593.423 1966.66 595.375C1966.66 597.327 1965.77 599.369 1963.98 601.501L1963.19 602.452L1954.13 594.865C1953.06 596.21 1952.55 597.597 1952.6 599.026C1952.67 600.454 1953.27 601.644 1954.4 602.596C1955.21 603.273 1956.03 603.681 1956.87 603.821C1957.7 603.96 1958.56 603.935 1959.43 603.743L1959.92 606C1957.36 606.782 1954.96 606.235 1952.72 604.358ZM1962.47 592.141C1961.55 591.368 1960.49 591.057 1959.3 591.207C1958.12 591.35 1956.94 591.964 1955.78 593.05L1962.47 598.66L1962.62 598.487C1963.53 597.271 1963.97 596.112 1963.94 595.008C1963.92 593.897 1963.43 592.941 1962.47 592.141ZM1969.04 617.618C1969.13 617.244 1969.41 616.685 1969.9 615.941C1967.91 616.154 1966.18 615.643 1964.71 614.408C1963.39 613.304 1962.62 612.026 1962.39 610.574C1962.18 609.121 1962.55 607.823 1963.51 606.678C1964.68 605.287 1966.11 604.65 1967.8 604.767C1969.52 604.884 1971.33 605.746 1973.25 607.353L1975.47 609.217L1976.35 608.167C1977.02 607.368 1977.31 606.534 1977.23 605.665C1977.15 604.787 1976.65 603.958 1975.72 603.179C1974.9 602.495 1974.05 602.129 1973.15 602.078C1972.25 602.027 1971.56 602.294 1971.07 602.879L1968.77 600.953C1969.33 600.287 1970.1 599.841 1971.09 599.617C1972.09 599.391 1973.15 599.436 1974.26 599.75C1975.38 600.071 1976.42 600.638 1977.4 601.452C1978.93 602.743 1979.82 604.141 1980.04 605.646C1980.27 607.143 1979.84 608.58 1978.74 609.958L1973.58 616.108C1972.56 617.335 1971.9 618.442 1971.6 619.428L1971.44 619.626L1969.04 617.618ZM1966.71 612.699C1967.42 613.299 1968.26 613.683 1969.21 613.851C1970.16 614.019 1971.03 613.927 1971.82 613.576L1974.12 610.834L1972.32 609.334C1969.53 606.987 1967.44 606.634 1966.07 608.272C1965.47 608.988 1965.24 609.748 1965.37 610.552C1965.51 611.355 1965.96 612.071 1966.71 612.699ZM1981.26 625.108C1982.08 625.792 1983 626.142 1984.02 626.158C1985.04 626.175 1985.9 625.84 1986.59 625.154L1988.75 626.966C1988.06 627.697 1987.19 628.205 1986.12 628.489C1985.06 628.774 1983.95 628.78 1982.79 628.509C1981.63 628.244 1980.61 627.732 1979.7 626.973C1977.88 625.448 1976.94 623.629 1976.87 621.515C1976.83 619.399 1977.68 617.287 1979.45 615.18L1979.77 614.797C1980.86 613.496 1982.07 612.54 1983.4 611.927C1984.72 611.315 1986.06 611.101 1987.42 611.287C1988.79 611.479 1990.08 612.086 1991.3 613.107C1992.8 614.363 1993.67 615.853 1993.9 617.579C1994.15 619.311 1993.7 620.921 1992.57 622.409L1990.4 620.598C1991.06 619.678 1991.33 618.694 1991.2 617.645C1991.08 616.596 1990.59 615.709 1989.73 614.984C1988.57 614.011 1987.31 613.675 1985.97 613.977C1984.64 614.277 1983.31 615.218 1981.98 616.798L1981.62 617.231C1980.33 618.77 1979.65 620.221 1979.59 621.584C1979.53 622.947 1980.09 624.122 1981.26 625.108ZM2004.8 619.33L2002.08 622.566L2004.58 624.657L2003.1 626.422L2000.6 624.332L1993.66 632.618C1993.21 633.153 1992.98 633.65 1992.98 634.108C1992.98 634.558 1993.25 635.007 1993.78 635.455C1994.05 635.676 1994.45 635.93 1994.99 636.218L1993.44 638.07C1992.7 637.731 1992.05 637.324 1991.48 636.848C1990.46 635.992 1989.95 635.038 1989.95 633.986C1989.95 632.934 1990.42 631.839 1991.37 630.703L1998.32 622.417L1995.89 620.378L1997.37 618.612L1999.8 620.651L2002.51 617.415L2004.8 619.33ZM2016.51 657.405L2014.13 655.407L2016.69 633.964L2005.07 647.82L2002.69 645.823L2017.76 627.842L2020.15 629.84L2017.56 651.365L2029.22 637.447L2031.58 639.424L2016.51 657.405ZM2028.61 667.548C2028.7 667.174 2028.99 666.615 2029.47 665.871C2027.49 666.084 2025.75 665.573 2024.28 664.338C2022.96 663.234 2022.19 661.956 2021.96 660.505C2021.75 659.052 2022.13 657.753 2023.09 656.608C2024.25 655.217 2025.68 654.58 2027.38 654.698C2029.09 654.814 2030.9 655.676 2032.82 657.284L2035.04 659.147L2035.92 658.097C2036.59 657.299 2036.89 656.465 2036.8 655.595C2036.72 654.717 2036.22 653.889 2035.29 653.109C2034.48 652.426 2033.62 652.059 2032.72 652.008C2031.83 651.957 2031.13 652.224 2030.64 652.809L2028.35 650.884C2028.91 650.217 2029.68 649.771 2030.66 649.547C2031.67 649.322 2032.72 649.366 2033.83 649.68C2034.95 650.001 2036 650.568 2036.97 651.383C2038.51 652.673 2039.39 654.071 2039.61 655.576C2039.85 657.073 2039.41 658.511 2038.31 659.889L2033.16 666.038C2032.13 667.265 2031.47 668.372 2031.17 669.359L2031.01 669.556L2028.61 667.548ZM2026.28 662.629C2027 663.23 2027.83 663.614 2028.78 663.781C2029.74 663.949 2030.61 663.857 2031.39 663.506L2033.69 660.765L2031.9 659.264C2029.1 656.918 2027.01 656.564 2025.64 658.202C2025.04 658.918 2024.81 659.678 2024.95 660.482C2025.09 661.286 2025.53 662.001 2026.28 662.629ZM2051.13 658.165L2048.42 661.4L2050.91 663.491L2049.43 665.257L2046.94 663.166L2039.99 671.453C2039.55 671.988 2039.32 672.485 2039.31 672.943C2039.31 673.392 2039.58 673.841 2040.12 674.29C2040.38 674.511 2040.79 674.765 2041.33 675.053L2039.78 676.905C2039.04 676.566 2038.38 676.158 2037.82 675.682C2036.8 674.827 2036.28 673.873 2036.28 672.82C2036.28 671.768 2036.76 670.674 2037.71 669.538L2044.65 661.252L2042.22 659.213L2043.7 657.447L2046.13 659.486L2048.85 656.25L2051.13 658.165ZM2044.88 681.18L2042.59 679.265L2053.79 665.903L2056.08 667.818L2044.88 681.18ZM2056.58 662.203C2056.89 661.833 2057.26 661.613 2057.7 661.544C2058.14 661.482 2058.59 661.638 2059.03 662.01C2059.48 662.383 2059.71 662.793 2059.72 663.242C2059.74 663.69 2059.59 664.1 2059.28 664.47C2058.97 664.841 2058.6 665.053 2058.16 665.106C2057.72 665.16 2057.28 665.001 2056.84 664.628C2056.39 664.256 2056.16 663.849 2056.13 663.409C2056.12 662.976 2056.27 662.574 2056.58 662.203ZM2055.55 684.849L2067.46 677.361L2069.8 679.317L2053.81 688.663L2052.06 687.204L2058.42 669.784L2060.76 671.74L2055.55 684.849ZM2065.96 699.271C2064.15 697.753 2063.17 695.925 2063.03 693.787C2062.89 691.641 2063.66 689.572 2065.33 687.579L2065.68 687.16C2066.79 685.834 2068.04 684.863 2069.41 684.247C2070.79 683.629 2072.18 683.407 2073.58 683.582C2074.99 683.755 2076.23 684.287 2077.29 685.177C2079.03 686.633 2079.9 688.336 2079.9 690.288C2079.91 692.24 2079.01 694.282 2077.23 696.414L2076.43 697.365L2067.38 689.778C2066.31 691.123 2065.8 692.51 2065.85 693.939C2065.91 695.367 2066.51 696.557 2067.65 697.51C2068.45 698.186 2069.27 698.594 2070.11 698.734C2070.95 698.874 2071.8 698.848 2072.68 698.656L2073.16 700.913C2070.6 701.695 2068.2 701.148 2065.96 699.271ZM2075.72 687.054C2074.79 686.281 2073.74 685.97 2072.55 686.121C2071.36 686.263 2070.19 686.877 2069.03 687.963L2075.72 693.573L2075.86 693.4C2076.77 692.184 2077.21 691.025 2077.18 689.922C2077.16 688.81 2076.67 687.854 2075.72 687.054Z"
        fill="#878B94"/>
      <path
        d="M1948.66 531.022L1922.13 508.785C1917.25 504.692 1909.59 505.784 1905.03 511.224L1880.26 540.778C1875.7 546.219 1875.96 553.948 1880.85 558.042L1907.38 580.279C1912.26 584.373 1919.92 583.281 1924.48 577.84L1949.25 548.286C1953.81 542.845 1953.55 535.116 1948.66 531.022Z"
        fill="url(#paint0_linear)"/>
      <path
        d="M1930.06 558.124C1931.95 555.859 1931.22 551.588 1928.45 547C1933.06 543.319 1935.62 539.458 1934.81 536.857C1934.63 536.253 1934.26 535.731 1933.74 535.298L1932.44 536.852C1932.72 537.092 1932.9 537.348 1933 537.628C1933.39 538.882 1932.02 541.259 1929.5 543.682C1928.88 544.279 1928.19 544.875 1927.47 545.464C1926.53 544.107 1925.41 542.732 1924.15 541.391C1924.39 539.397 1924.5 537.495 1924.48 535.735C1928.28 535.324 1931.15 535.764 1932.45 536.85L1933.75 535.296C1932.04 533.861 1928.65 533.348 1924.4 533.817C1924.11 529.562 1923 526.331 1921.29 524.895L1919.98 526.45C1921.27 527.53 1922.22 530.282 1922.49 534.082C1920.76 534.376 1918.91 534.809 1917.01 535.404C1915.46 534.392 1913.91 533.532 1912.4 532.851C1912.84 532.034 1913.3 531.269 1913.77 530.558C1915.71 527.651 1917.81 525.884 1919.11 526.038C1919.4 526.069 1919.69 526.217 1919.98 526.457L1921.28 524.902C1920.76 524.464 1920.18 524.193 1919.55 524.113C1916.85 523.776 1913.51 526.966 1910.71 532.142C1905.71 530.233 1901.4 530.259 1899.5 532.517C1897.61 534.782 1898.34 539.053 1901.11 543.641C1896.5 547.322 1893.94 551.183 1894.75 553.784C1894.94 554.388 1895.3 554.91 1895.83 555.349C1897.54 556.784 1900.93 557.297 1905.18 556.827C1905.47 561.083 1906.58 564.314 1908.29 565.749C1908.82 566.187 1909.39 566.459 1910.03 566.538C1912.72 566.876 1916.06 563.685 1918.87 558.51C1923.84 560.414 1928.16 560.382 1930.06 558.124ZM1925.84 546.679C1924.86 547.385 1923.8 548.072 1922.7 548.728C1922.91 547.956 1923.11 547.174 1923.28 546.371C1923.46 545.574 1923.61 544.774 1923.75 543.989C1924.51 544.876 1925.22 545.773 1925.84 546.679ZM1916.77 551.711C1915.5 552.245 1914.25 552.72 1913.04 553.116C1912.03 552.429 1911.05 551.689 1910.11 550.896C1909.17 550.108 1908.27 549.271 1907.42 548.415C1907.59 547.152 1907.83 545.844 1908.13 544.503C1908.42 543.194 1908.77 541.907 1909.16 540.644C1910.33 540.034 1911.55 539.465 1912.78 538.944C1914.05 538.41 1915.3 537.935 1916.51 537.539C1917.51 538.226 1918.49 538.965 1919.44 539.759C1920.38 540.547 1921.28 541.384 1922.13 542.24C1921.95 543.503 1921.72 544.81 1921.42 546.151C1921.13 547.461 1920.78 548.748 1920.39 550.011C1919.22 550.616 1918 551.19 1916.77 551.711ZM1919.54 552.491C1919.1 553.707 1918.6 554.881 1918.08 555.985C1917.07 555.525 1916.06 554.992 1915.04 554.392C1915.8 554.112 1916.56 553.817 1917.32 553.492C1918.08 553.175 1918.82 552.835 1919.54 552.491ZM1906.99 554.635C1906.98 553.481 1907.02 552.25 1907.13 550.954C1907.67 551.452 1908.22 551.953 1908.8 552.438C1909.39 552.929 1909.98 553.4 1910.58 553.84C1909.33 554.186 1908.13 554.446 1906.99 554.635ZM1905.8 546.647C1905.04 545.759 1904.34 544.863 1903.71 543.956C1904.69 543.25 1905.76 542.564 1906.86 541.908C1906.65 542.68 1906.45 543.462 1906.27 544.264C1906.1 545.067 1905.94 545.861 1905.8 546.647ZM1922.56 536.001C1922.58 537.155 1922.53 538.386 1922.42 539.682C1921.88 539.184 1921.33 538.683 1920.75 538.198C1920.16 537.707 1919.57 537.236 1918.98 536.795C1920.22 536.45 1921.43 536.189 1922.56 536.001ZM1914.51 536.243C1913.76 536.524 1912.99 536.819 1912.23 537.143C1911.48 537.461 1910.74 537.794 1910.02 538.138C1910.46 536.922 1910.96 535.748 1911.48 534.643C1912.48 535.111 1913.5 535.643 1914.51 536.243ZM1901.56 540.245C1900.24 537.345 1899.97 534.77 1900.89 533.676C1901.8 532.582 1904.39 532.39 1907.47 533.192C1908.22 533.383 1909 533.644 1909.79 533.934C1909 535.598 1908.27 537.411 1907.63 539.353C1905.84 540.322 1904.2 541.351 1902.71 542.418C1902.27 541.685 1901.89 540.957 1901.56 540.245ZM1896.56 553.013C1896.17 551.759 1897.54 549.382 1900.06 546.959C1900.68 546.362 1901.37 545.766 1902.09 545.176C1903.03 546.534 1904.15 547.909 1905.41 549.25C1905.17 551.244 1905.06 553.146 1905.08 554.906C1901.28 555.317 1898.41 554.876 1897.11 553.791C1896.84 553.549 1896.65 553.288 1896.56 553.013ZM1915.79 560.083C1913.85 562.99 1911.75 564.757 1910.45 564.603C1910.16 564.572 1909.87 564.424 1909.58 564.184C1908.29 563.104 1907.35 560.352 1907.07 556.552C1908.8 556.258 1910.65 555.825 1912.56 555.23C1914.11 556.242 1915.66 557.101 1917.16 557.783C1916.72 558.607 1916.26 559.377 1915.79 560.083ZM1922.08 557.443C1921.33 557.252 1920.55 556.992 1919.77 556.701C1920.56 555.038 1921.28 553.225 1921.92 551.283C1923.71 550.313 1925.36 549.285 1926.84 548.218C1927.28 548.951 1927.67 549.678 1928 550.395C1929.32 553.296 1929.59 555.871 1928.67 556.965C1927.75 558.054 1925.16 558.246 1922.08 557.443Z"
        fill="white"/>
    </g>
  </g>
  <path
    d="M1298.95 1298.68H938.05C930.665 1298.68 924.683 1304.66 924.683 1312.05V1392.25C924.683 1399.63 930.664 1405.62 938.05 1405.62H1298.95C1306.33 1405.62 1312.32 1399.64 1312.32 1392.25V1312.05C1312.32 1304.66 1306.33 1298.68 1298.95 1298.68ZM991.517 1352.15C991.517 1359.53 985.536 1365.52 978.15 1365.52C970.764 1365.52 964.783 1359.53 964.783 1352.15C964.783 1344.76 970.765 1338.78 978.15 1338.78C985.535 1338.78 991.517 1344.76 991.517 1352.15Z"
    fill="#939598" fill-opacity="0.5"/>
  <path
    d="M978.15 1365.52C985.532 1365.52 991.517 1359.53 991.517 1352.15C991.517 1344.77 985.532 1338.78 978.15 1338.78C970.768 1338.78 964.783 1344.77 964.783 1352.15C964.783 1359.53 970.768 1365.52 978.15 1365.52Z"
    fill="#414042"/>
  <path
    d="M991.517 1439.03H938.05C930.665 1439.03 924.683 1445.01 924.683 1452.4V1532.6C924.683 1539.98 930.664 1545.97 938.05 1545.97H1298.95C1306.33 1545.97 1312.32 1539.99 1312.32 1532.6V1452.4C1312.32 1445.02 1306.34 1439.03 1298.95 1439.03H991.517ZM991.517 1492.5C991.517 1499.88 985.536 1505.87 978.15 1505.87C970.764 1505.87 964.783 1499.88 964.783 1492.5C964.783 1485.12 970.764 1479.13 978.15 1479.13C985.536 1479.13 991.517 1485.12 991.517 1492.5Z"
    fill="#939598" fill-opacity="0.5"/>
  <path
    d="M978.15 1505.87C985.532 1505.87 991.517 1499.88 991.517 1492.5C991.517 1485.12 985.532 1479.13 978.15 1479.13C970.768 1479.13 964.783 1485.12 964.783 1492.5C964.783 1499.88 970.768 1505.87 978.15 1505.87Z"
    fill="#414042"/>
  <path
    d="M991.517 1579.38H938.05C930.665 1579.38 924.683 1585.36 924.683 1592.75V1672.95C924.683 1680.33 930.664 1686.32 938.05 1686.32H1298.95C1306.33 1686.32 1312.32 1680.34 1312.32 1672.95V1592.75C1312.32 1585.36 1306.34 1579.38 1298.95 1579.38H991.517ZM991.517 1632.85C991.517 1640.23 985.536 1646.22 978.15 1646.22C970.764 1646.22 964.783 1640.24 964.783 1632.85C964.783 1625.46 970.764 1619.48 978.15 1619.48C985.536 1619.48 991.517 1625.46 991.517 1632.85Z"
    fill="#939598" fill-opacity="0.5"/>
  <path
    d="M978.15 1646.22C985.532 1646.22 991.517 1640.23 991.517 1632.85C991.517 1625.47 985.532 1619.48 978.15 1619.48C970.768 1619.48 964.783 1625.47 964.783 1632.85C964.783 1640.23 970.768 1646.22 978.15 1646.22Z"
    fill="#414042"/>
  <path
    d="M1298.95 1412.3C1310.02 1412.3 1319 1403.32 1319 1392.25V1312.05C1319 1300.98 1310.02 1292 1298.95 1292H938.05C926.976 1292 918 1300.98 918 1312.05V1392.25C918 1403.32 926.976 1412.3 938.05 1412.3H958.1V1432.35H938.05C926.976 1432.35 918 1441.33 918 1452.4V1532.6C918 1543.67 926.976 1552.65 938.05 1552.65H958.1V1572.7H938.05C926.976 1572.7 918 1581.68 918 1592.75V1672.95C918 1684.02 926.976 1693 938.05 1693H1298.95C1310.02 1693 1319 1684.02 1319 1672.95V1592.75C1319 1581.68 1310.02 1572.7 1298.95 1572.7H1278.9V1552.65H1298.95C1310.02 1552.65 1319 1543.67 1319 1532.6V1452.4C1319 1441.33 1310.02 1432.35 1298.95 1432.35H1278.9V1412.3H1298.95ZM931.367 1392.25V1312.05C931.367 1308.36 934.361 1305.37 938.05 1305.37H1298.95C1302.64 1305.37 1305.63 1308.36 1305.63 1312.05V1392.25C1305.63 1395.94 1302.64 1398.93 1298.95 1398.93H938.05C934.361 1398.93 931.367 1395.94 931.367 1392.25ZM998.2 1432.35V1412.3H1238.8V1432.35H998.2ZM971.467 1412.3H984.834V1432.35H971.467V1412.3ZM971.467 1552.65H984.834V1572.7H971.467V1552.65ZM1238.8 1552.65V1572.7H998.2V1552.65H1238.8ZM1305.63 1592.75V1672.95C1305.63 1676.64 1302.64 1679.63 1298.95 1679.63H938.05C934.361 1679.63 931.367 1676.64 931.367 1672.95V1592.75C931.367 1589.06 934.361 1586.07 938.05 1586.07H1298.95C1302.64 1586.07 1305.63 1589.06 1305.63 1592.75ZM1265.53 1572.7H1252.17V1552.65H1265.53V1572.7ZM1305.63 1452.4V1532.6C1305.63 1536.29 1302.64 1539.28 1298.95 1539.28H938.05C934.361 1539.28 931.367 1536.29 931.367 1532.6V1452.4C931.367 1448.71 934.361 1445.72 938.05 1445.72H1298.95C1302.64 1445.72 1305.63 1448.71 1305.63 1452.4ZM1265.53 1432.35H1252.17V1412.3H1265.53V1432.35Z"
    fill="#231F20"/>
  <path
    d="M996.97 1358.83H1131.87C1135.56 1358.83 1138.55 1355.84 1138.55 1352.15C1138.55 1348.46 1135.56 1345.47 1131.87 1345.47H996.97C993.282 1335.03 981.826 1329.55 971.386 1333.25C960.947 1336.95 955.473 1348.39 959.163 1358.83C962.852 1369.27 974.308 1374.75 984.747 1371.05C990.46 1369.03 994.952 1364.54 996.97 1358.83ZM971.467 1352.15C971.467 1348.46 974.461 1345.47 978.15 1345.47C981.839 1345.47 984.833 1348.46 984.833 1352.15C984.833 1355.84 981.839 1358.83 978.15 1358.83C974.461 1358.83 971.467 1355.84 971.467 1352.15Z"
    fill="#231F20"/>
  <path d="M1225.43 1318.73H1212.07V1332.1H1225.43V1318.73Z" fill="#231F20"/>
  <path d="M1252.17 1318.73H1238.8V1332.1H1252.17V1318.73Z" fill="#231F20"/>
  <path d="M1278.9 1318.73H1265.53V1332.1H1278.9V1318.73Z" fill="#231F20"/>
  <path d="M1198.7 1318.73H1185.33V1332.1H1198.7V1318.73Z" fill="#231F20"/>
  <path d="M1171.97 1318.73H1158.6V1332.1H1171.97V1318.73Z" fill="#231F20"/>
  <path d="M1225.43 1345.47H1212.07V1358.83H1225.43V1345.47Z" fill="#231F20"/>
  <path d="M1252.17 1345.47H1238.8V1358.83H1252.17V1345.47Z" fill="#231F20"/>
  <path d="M1278.9 1345.47H1265.53V1358.83H1278.9V1345.47Z" fill="#231F20"/>
  <path d="M1198.7 1345.47H1185.33V1358.83H1198.7V1345.47Z" fill="#231F20"/>
  <path d="M1171.97 1345.47H1158.6V1358.83H1171.97V1345.47Z" fill="#231F20"/>
  <path d="M1225.43 1372.2H1212.07V1385.57H1225.43V1372.2Z" fill="#231F20"/>
  <path d="M1252.17 1372.2H1238.8V1385.57H1252.17V1372.2Z" fill="#231F20"/>
  <path d="M1278.9 1372.2H1265.53V1385.57H1278.9V1372.2Z" fill="#231F20"/>
  <path d="M1198.7 1372.2H1185.33V1385.57H1198.7V1372.2Z" fill="#231F20"/>
  <path d="M1171.97 1372.2H1158.6V1385.57H1171.97V1372.2Z" fill="#231F20"/>
  <path
    d="M1131.87 1485.82H996.97C993.282 1475.38 981.826 1469.9 971.386 1473.6C960.94 1477.29 955.473 1488.74 959.163 1499.18C962.853 1509.62 974.308 1515.1 984.747 1511.4C990.454 1509.38 994.946 1504.89 996.964 1499.18H1131.87C1135.56 1499.18 1138.55 1496.19 1138.55 1492.5C1138.55 1488.81 1135.56 1485.82 1131.87 1485.82ZM978.15 1499.18C974.461 1499.18 971.467 1496.19 971.467 1492.5C971.467 1488.81 974.461 1485.82 978.15 1485.82C981.839 1485.82 984.833 1488.81 984.833 1492.5C984.833 1496.19 981.839 1499.18 978.15 1499.18Z"
    fill="#231F20"/>
  <path d="M1225.43 1459.08H1212.07V1472.45H1225.43V1459.08Z" fill="#231F20"/>
  <path d="M1252.17 1459.08H1238.8V1472.45H1252.17V1459.08Z" fill="#231F20"/>
  <path d="M1278.9 1459.08H1265.53V1472.45H1278.9V1459.08Z" fill="#231F20"/>
  <path d="M1198.7 1459.08H1185.33V1472.45H1198.7V1459.08Z" fill="#231F20"/>
  <path d="M1171.97 1459.08H1158.6V1472.45H1171.97V1459.08Z" fill="#231F20"/>
  <path d="M1225.43 1485.82H1212.07V1499.18H1225.43V1485.82Z" fill="#231F20"/>
  <path d="M1252.17 1485.82H1238.8V1499.18H1252.17V1485.82Z" fill="#231F20"/>
  <path d="M1278.9 1485.82H1265.53V1499.18H1278.9V1485.82Z" fill="#231F20"/>
  <path d="M1198.7 1485.82H1185.33V1499.18H1198.7V1485.82Z" fill="#231F20"/>
  <path d="M1171.97 1485.82H1158.6V1499.18H1171.97V1485.82Z" fill="#231F20"/>
  <path d="M1225.43 1512.55H1212.07V1525.92H1225.43V1512.55Z" fill="#231F20"/>
  <path d="M1252.17 1512.55H1238.8V1525.92H1252.17V1512.55Z" fill="#231F20"/>
  <path d="M1278.9 1512.55H1265.53V1525.92H1278.9V1512.55Z" fill="#231F20"/>
  <path d="M1198.7 1512.55H1185.33V1525.92H1198.7V1512.55Z" fill="#231F20"/>
  <path d="M1171.97 1512.55H1158.6V1525.92H1171.97V1512.55Z" fill="#231F20"/>
  <path
    d="M1131.87 1626.17H996.97C993.282 1615.73 981.826 1610.25 971.386 1613.95C960.947 1617.65 955.473 1629.1 959.163 1639.53C962.852 1649.97 974.308 1655.45 984.747 1651.75C990.454 1649.73 994.946 1645.24 996.964 1639.53H1131.87C1135.56 1639.53 1138.55 1636.54 1138.55 1632.85C1138.55 1629.16 1135.56 1626.17 1131.87 1626.17ZM978.15 1639.53C974.461 1639.53 971.467 1636.54 971.467 1632.85C971.467 1629.16 974.461 1626.17 978.15 1626.17C981.839 1626.17 984.833 1629.16 984.833 1632.85C984.833 1636.54 981.839 1639.53 978.15 1639.53Z"
    fill="#231F20"/>
  <path d="M1225.43 1599.43H1212.07V1612.8H1225.43V1599.43Z" fill="#231F20"/>
  <path d="M1252.17 1599.43H1238.8V1612.8H1252.17V1599.43Z" fill="#231F20"/>
  <path d="M1278.9 1599.43H1265.53V1612.8H1278.9V1599.43Z" fill="#231F20"/>
  <path d="M1198.7 1599.43H1185.33V1612.8H1198.7V1599.43Z" fill="#231F20"/>
  <path d="M1171.97 1599.43H1158.6V1612.8H1171.97V1599.43Z" fill="#231F20"/>
  <path d="M1225.43 1626.17H1212.07V1639.53H1225.43V1626.17Z" fill="#231F20"/>
  <path d="M1252.17 1626.17H1238.8V1639.53H1252.17V1626.17Z" fill="#231F20"/>
  <path d="M1278.9 1626.17H1265.53V1639.53H1278.9V1626.17Z" fill="#231F20"/>
  <path d="M1198.7 1626.17H1185.33V1639.53H1198.7V1626.17Z" fill="#231F20"/>
  <path d="M1171.97 1626.17H1158.6V1639.53H1171.97V1626.17Z" fill="#231F20"/>
  <path d="M1225.43 1652.9H1212.07V1666.27H1225.43V1652.9Z" fill="#231F20"/>
  <path d="M1252.17 1652.9H1238.8V1666.27H1252.17V1652.9Z" fill="#231F20"/>
  <path d="M1278.9 1652.9H1265.53V1666.27H1278.9V1652.9Z" fill="#231F20"/>
  <path d="M1198.7 1652.9H1185.33V1666.27H1198.7V1652.9Z" fill="#231F20"/>
  <path d="M1171.97 1652.9H1158.6V1666.27H1171.97V1652.9Z" fill="#231F20"/>
  <path d="M1120.2 1176L1122 672" stroke="black" stroke-width="15"
        stroke-linecap="round" stroke-linejoin="round"/>
  <path d="M1045 763.5L1122 672L1192.5 763.5" stroke="black" stroke-width="15"
        stroke-linecap="round" stroke-linejoin="round"/>
  <path d="M1686 1055.66L1755.38 974.572L1830 1055.66" stroke="black"
        stroke-width="15" stroke-linecap="round" stroke-linejoin="round"/>
  <path
    d="M1467.28 1400.65L1652.7 1399.21C1680.8 1399 1707.67 1387.62 1727.38 1367.6C1747.1 1347.58 1758.05 1320.54 1757.84 1292.44L1755.38 974.572"
    stroke="black" stroke-width="15" stroke-linecap="round"
    stroke-linejoin="round"/>
  <path d="M557.5 1071L489.938 987L422 1071" stroke="black" stroke-width="15"
        stroke-linecap="round" stroke-linejoin="round"/>
  <path
    d="M778 1406L594.688 1406C566.907 1406 540.263 1394.96 520.619 1375.32C500.974 1355.67 489.938 1329.03 489.938 1301.25L489.938 987"
    stroke="black" stroke-width="15" stroke-linecap="round"
    stroke-linejoin="round"/>
  <path
    d="M826.54 1790C824.032 1790 821.876 1789.12 820.072 1787.36C818.312 1785.56 817.432 1783.4 817.432 1780.89V1766.5H847.66V1762.68C847.66 1761.44 847.572 1760.76 847.396 1760.63C847.264 1760.45 846.582 1760.37 845.35 1760.37H817.432V1751.72H847.198C849.706 1751.72 851.84 1752.62 853.6 1754.43C855.404 1756.19 856.306 1758.32 856.306 1760.83V1790H826.54ZM828.388 1781.35H847.66V1774.29H826.078V1779.04C826.078 1780.28 826.144 1780.98 826.276 1781.16C826.452 1781.29 827.156 1781.35 828.388 1781.35ZM874.606 1790L859.558 1751.72H868.732L878.038 1774.29L887.806 1751.72H896.782L907.21 1774.42L915.856 1751.72H925.03L910.642 1790H903.91L892.36 1764.46L881.338 1790H874.606ZM937.462 1790C934.954 1790 932.798 1789.12 930.994 1787.36C929.234 1785.56 928.354 1783.4 928.354 1780.89V1760.83C928.354 1758.32 929.234 1756.19 930.994 1754.43C932.798 1752.62 934.954 1751.72 937.462 1751.72H958.12C960.628 1751.72 962.762 1752.62 964.522 1754.43C966.326 1756.19 967.228 1758.32 967.228 1760.83V1775.22H937V1779.04C937 1780.28 937.066 1780.98 937.198 1781.16C937.374 1781.29 938.078 1781.35 939.31 1781.35H967.228V1790H937.462ZM937 1767.43H958.582V1762.68C958.582 1761.44 958.494 1760.76 958.318 1760.63C958.186 1760.45 957.504 1760.37 956.272 1760.37H939.31C938.078 1760.37 937.374 1760.45 937.198 1760.63C937.066 1760.76 937 1761.44 937 1762.68V1767.43ZM982.51 1790C980.002 1790 977.846 1789.12 976.042 1787.36C974.282 1785.56 973.402 1783.4 973.402 1780.89V1779.44H982.048V1779.84C982.048 1780.54 982.114 1780.98 982.246 1781.16C982.422 1781.29 982.862 1781.35 983.566 1781.35H1002.11C1002.77 1781.35 1003.19 1781.29 1003.37 1781.16C1003.54 1780.98 1003.63 1780.54 1003.63 1779.84V1776.73C1003.63 1776.03 1003.54 1775.61 1003.37 1775.48C1003.19 1775.3 1002.77 1775.22 1002.11 1775.22H982.51C980.002 1775.22 977.846 1774.31 976.042 1772.51C974.282 1770.71 973.402 1768.57 973.402 1766.11V1760.83C973.402 1758.32 974.282 1756.19 976.042 1754.43C977.846 1752.62 980.002 1751.72 982.51 1751.72H1003.17C1005.68 1751.72 1007.83 1752.62 1009.64 1754.43C1011.44 1756.19 1012.34 1758.32 1012.34 1760.83V1762.28H1003.63V1761.88C1003.63 1761.18 1003.54 1760.76 1003.37 1760.63C1003.19 1760.45 1002.77 1760.37 1002.11 1760.37H983.566C982.862 1760.37 982.422 1760.45 982.246 1760.63C982.114 1760.76 982.048 1761.18 982.048 1761.88V1764.99C982.048 1765.69 982.114 1766.13 982.246 1766.31C982.422 1766.44 982.862 1766.5 983.566 1766.5H1003.17C1005.68 1766.5 1007.83 1767.41 1009.64 1769.21C1011.44 1771.01 1012.34 1773.15 1012.34 1775.61V1780.89C1012.34 1783.4 1011.44 1785.56 1009.64 1787.36C1007.83 1789.12 1005.68 1790 1003.17 1790H982.51ZM1027.05 1790C1024.54 1790 1022.39 1789.12 1020.58 1787.36C1018.82 1785.56 1017.94 1783.4 1017.94 1780.89V1760.83C1017.94 1758.32 1018.82 1756.19 1020.58 1754.43C1022.39 1752.62 1024.54 1751.72 1027.05 1751.72H1047.71C1050.22 1751.72 1052.35 1752.62 1054.11 1754.43C1055.92 1756.19 1056.82 1758.32 1056.82 1760.83V1780.89C1056.82 1783.4 1055.92 1785.56 1054.11 1787.36C1052.35 1789.12 1050.22 1790 1047.71 1790H1027.05ZM1028.9 1781.35H1045.86C1047.09 1781.35 1047.78 1781.29 1047.91 1781.16C1048.08 1780.98 1048.17 1780.28 1048.17 1779.04V1762.68C1048.17 1761.44 1048.08 1760.76 1047.91 1760.63C1047.78 1760.45 1047.09 1760.37 1045.86 1760.37H1028.9C1027.67 1760.37 1026.96 1760.45 1026.79 1760.63C1026.66 1760.76 1026.59 1761.44 1026.59 1762.68V1779.04C1026.59 1780.28 1026.66 1780.98 1026.79 1781.16C1026.96 1781.29 1027.67 1781.35 1028.9 1781.35ZM1063.84 1790V1751.72H1111.29C1113.8 1751.72 1115.94 1752.62 1117.7 1754.43C1119.5 1756.19 1120.4 1758.32 1120.4 1760.83V1790H1111.82V1762.68C1111.82 1761.44 1111.73 1760.76 1111.56 1760.63C1111.38 1760.45 1110.7 1760.37 1109.51 1760.37H1098.82C1097.59 1760.37 1096.88 1760.45 1096.71 1760.63C1096.58 1760.76 1096.51 1761.44 1096.51 1762.68V1790H1087.8V1762.68C1087.8 1761.44 1087.71 1760.76 1087.53 1760.63C1087.4 1760.45 1086.72 1760.37 1085.49 1760.37H1074.8C1073.56 1760.37 1072.86 1760.45 1072.68 1760.63C1072.55 1760.76 1072.49 1761.44 1072.49 1762.68V1790H1063.84ZM1135.4 1790C1132.89 1790 1130.73 1789.12 1128.93 1787.36C1127.17 1785.56 1126.29 1783.4 1126.29 1780.89V1760.83C1126.29 1758.32 1127.17 1756.19 1128.93 1754.43C1130.73 1752.62 1132.89 1751.72 1135.4 1751.72H1156.06C1158.56 1751.72 1160.7 1752.62 1162.46 1754.43C1164.26 1756.19 1165.16 1758.32 1165.16 1760.83V1775.22H1134.94V1779.04C1134.94 1780.28 1135 1780.98 1135.13 1781.16C1135.31 1781.29 1136.01 1781.35 1137.25 1781.35H1165.16V1790H1135.4ZM1134.94 1767.43H1156.52V1762.68C1156.52 1761.44 1156.43 1760.76 1156.25 1760.63C1156.12 1760.45 1155.44 1760.37 1154.21 1760.37H1137.25C1136.01 1760.37 1135.31 1760.45 1135.13 1760.63C1135 1760.76 1134.94 1761.44 1134.94 1762.68V1767.43ZM1180.45 1790C1177.94 1790 1175.78 1789.12 1173.98 1787.36C1172.22 1785.56 1171.34 1783.4 1171.34 1780.89V1779.44H1179.98V1779.84C1179.98 1780.54 1180.05 1780.98 1180.18 1781.16C1180.36 1781.29 1180.8 1781.35 1181.5 1781.35H1200.05C1200.71 1781.35 1201.13 1781.29 1201.3 1781.16C1201.48 1780.98 1201.57 1780.54 1201.57 1779.84V1776.73C1201.57 1776.03 1201.48 1775.61 1201.3 1775.48C1201.13 1775.3 1200.71 1775.22 1200.05 1775.22H1180.45C1177.94 1775.22 1175.78 1774.31 1173.98 1772.51C1172.22 1770.71 1171.34 1768.57 1171.34 1766.11V1760.83C1171.34 1758.32 1172.22 1756.19 1173.98 1754.43C1175.78 1752.62 1177.94 1751.72 1180.45 1751.72H1201.1C1203.61 1751.72 1205.77 1752.62 1207.57 1754.43C1209.38 1756.19 1210.28 1758.32 1210.28 1760.83V1762.28H1201.57V1761.88C1201.57 1761.18 1201.48 1760.76 1201.3 1760.63C1201.13 1760.45 1200.71 1760.37 1200.05 1760.37H1181.5C1180.8 1760.37 1180.36 1760.45 1180.18 1760.63C1180.05 1760.76 1179.98 1761.18 1179.98 1761.88V1764.99C1179.98 1765.69 1180.05 1766.13 1180.18 1766.31C1180.36 1766.44 1180.8 1766.5 1181.5 1766.5H1201.1C1203.61 1766.5 1205.77 1767.41 1207.57 1769.21C1209.38 1771.01 1210.28 1773.15 1210.28 1775.61V1780.89C1210.28 1783.4 1209.38 1785.56 1207.57 1787.36C1205.77 1789.12 1203.61 1790 1201.1 1790H1180.45ZM1224.67 1790C1222.16 1790 1220 1789.12 1218.2 1787.36C1216.44 1785.56 1215.56 1783.4 1215.56 1780.89V1760.83C1215.56 1758.32 1216.44 1756.19 1218.2 1754.43C1220 1752.62 1222.16 1751.72 1224.67 1751.72H1245.32C1247.83 1751.72 1249.97 1752.62 1251.73 1754.43C1253.53 1756.19 1254.43 1758.32 1254.43 1760.83V1775.22H1224.2V1779.04C1224.2 1780.28 1224.27 1780.98 1224.4 1781.16C1224.58 1781.29 1225.28 1781.35 1226.51 1781.35H1254.43V1790H1224.67ZM1224.2 1767.43H1245.79V1762.68C1245.79 1761.44 1245.7 1760.76 1245.52 1760.63C1245.39 1760.45 1244.71 1760.37 1243.48 1760.37H1226.51C1225.28 1760.37 1224.58 1760.45 1224.4 1760.63C1224.27 1760.76 1224.2 1761.44 1224.2 1762.68V1767.43ZM1270.43 1790C1267.92 1790 1265.76 1789.12 1263.96 1787.36C1262.2 1785.56 1261.32 1783.4 1261.32 1780.89V1766.5H1291.55V1762.68C1291.55 1761.44 1291.46 1760.76 1291.28 1760.63C1291.15 1760.45 1290.47 1760.37 1289.24 1760.37H1261.32V1751.72H1291.09C1293.59 1751.72 1295.73 1752.62 1297.49 1754.43C1299.29 1756.19 1300.19 1758.32 1300.19 1760.83V1790H1270.43ZM1272.28 1781.35H1291.55V1774.29H1269.97V1779.04C1269.97 1780.28 1270.03 1780.98 1270.16 1781.16C1270.34 1781.29 1271.04 1781.35 1272.28 1781.35ZM1305.86 1790V1760.83C1305.86 1758.32 1306.74 1756.19 1308.5 1754.43C1310.3 1752.62 1312.46 1751.72 1314.97 1751.72H1336.22V1760.37H1316.81C1315.58 1760.37 1314.88 1760.45 1314.7 1760.63C1314.57 1760.76 1314.5 1761.44 1314.5 1762.68V1790H1305.86ZM1349.38 1790C1346.87 1790 1344.72 1789.12 1342.91 1787.36C1341.15 1785.56 1340.27 1783.4 1340.27 1780.89V1760.83C1340.27 1758.32 1341.15 1756.19 1342.91 1754.43C1344.72 1752.62 1346.87 1751.72 1349.38 1751.72H1379.08V1760.37H1351.23C1350 1760.37 1349.29 1760.45 1349.12 1760.63C1348.99 1760.76 1348.92 1761.44 1348.92 1762.68V1779.04C1348.92 1780.28 1348.99 1780.98 1349.12 1781.16C1349.29 1781.29 1350 1781.35 1351.23 1781.35H1379.15V1790H1349.38ZM1384.69 1790V1739.18H1393.33V1751.72H1414.45C1416.92 1751.72 1419.05 1752.62 1420.86 1754.43C1422.66 1756.19 1423.56 1758.32 1423.56 1760.83V1790H1414.92V1762.68C1414.92 1761.44 1414.83 1760.76 1414.65 1760.63C1414.52 1760.45 1413.84 1760.37 1412.61 1760.37H1395.64C1394.41 1760.37 1393.71 1760.45 1393.53 1760.63C1393.4 1760.76 1393.33 1761.44 1393.33 1762.68V1790H1384.69Z"
    fill="#EE0E51"/>
  <defs>
    <linearGradient id="paint0_linear" x1="1911.03" y1="510.396" x2="1908.93"
                    y2="582.111" gradientUnits="userSpaceOnUse">
      <stop stop-color="#FF0065"/>
      <stop offset="1" stop-color="#EA52E9"/>
    </linearGradient>
    <clipPath id="clip0">
      <rect width="512" height="512" fill="white"
            transform="translate(0 492.777) rotate(-19.2471)"/>
    </clipPath>
    <clipPath id="clip1">
      <rect width="259" height="207" fill="white"
            transform="translate(212 449.781) rotate(-18.8734)"/>
    </clipPath>
    <clipPath id="clip2">
      <rect width="512" height="512" fill="white"
            transform="translate(944.311) rotate(20.2618)"/>
    </clipPath>
    <clipPath id="clip3">
      <rect width="284.71" height="198.664" fill="white"
            transform="translate(1127.07 98) rotate(20.0381)"/>
    </clipPath>
    <clipPath id="clip4">
      <rect width="512" height="512" fill="white"
            transform="translate(1811.62 274) rotate(40.5147)"/>
    </clipPath>
    <clipPath id="clip5">
      <rect width="251.768" height="80.6289" fill="white"
            transform="translate(1917.79 496) rotate(39.9674)"/>
    </clipPath>
  </defs>
</svg>
