<svg viewBox="0 0 179 96" fill="none" xmlns="http://www.w3.org/2000/svg">
<path d="M141.643 27.6136L116.627 4.72624L119.006 2.13801L148.765 29.3807V47.6377C148.765 55.132 141.43 61.6554 131.873 61.6554H112.541C102.984 61.6554 95.6485 55.132 95.6485 47.6377V35.2069V33.7069H94.1485H84.1165H82.6165V35.2069V47.6377C82.6165 55.132 75.2815 61.6554 65.7245 61.6554H46.392C36.835 61.6554 29.5 55.132 29.5 47.6377V29.3996L59.28 2.11756L61.6594 4.70586L36.6428 27.614L33.7967 30.2203H37.6558H140.63H144.492L141.643 27.6136Z" fill="#FC60A8" stroke="#494368" stroke-width="3"/>
<path d="M1.044 91V80.542C1.044 79.858 1.29 79.27 1.782 78.778C2.274 78.286 2.862 78.04 3.546 78.04H11.484C12.18 78.04 12.774 78.286 13.266 78.778C13.758 79.27 14.004 79.858 14.004 80.542V91H11.61V86.644H3.42V91H1.044ZM3.42 84.268H11.61V81.064C11.61 80.728 11.586 80.542 11.538 80.506C11.49 80.458 11.304 80.434 10.98 80.434H4.05C3.714 80.434 3.522 80.458 3.474 80.506C3.438 80.542 3.42 80.728 3.42 81.064V84.268ZM19.7809 91L15.6769 80.56H18.1789L20.7169 86.716L23.3809 80.56H25.8289L28.6729 86.752L31.0309 80.56H33.5329L29.6089 91H27.7729L24.6229 84.034L21.6169 91H19.7809ZM36.9235 91C36.2395 91 35.6515 90.76 35.1595 90.28C34.6795 89.788 34.4395 89.2 34.4395 88.516V83.044C34.4395 82.36 34.6795 81.778 35.1595 81.298C35.6515 80.806 36.2395 80.56 36.9235 80.56H42.5575C43.2415 80.56 43.8235 80.806 44.3035 81.298C44.7955 81.778 45.0415 82.36 45.0415 83.044V86.968H36.7975V88.012C36.7975 88.348 36.8155 88.54 36.8515 88.588C36.8995 88.624 37.0915 88.642 37.4275 88.642H45.0415V91H36.9235ZM36.7975 84.844H42.6835V83.548C42.6835 83.212 42.6595 83.026 42.6115 82.99C42.5755 82.942 42.3895 82.918 42.0535 82.918H37.4275C37.0915 82.918 36.8995 82.942 36.8515 82.99C36.8155 83.026 36.7975 83.212 36.7975 83.548V84.844ZM49.2093 91C48.5253 91 47.9373 90.76 47.4453 90.28C46.9653 89.788 46.7253 89.2 46.7253 88.516V88.12H49.0833V88.228C49.0833 88.42 49.1013 88.54 49.1373 88.588C49.1853 88.624 49.3053 88.642 49.4973 88.642H54.5553C54.7353 88.642 54.8493 88.624 54.8973 88.588C54.9453 88.54 54.9693 88.42 54.9693 88.228V87.382C54.9693 87.19 54.9453 87.076 54.8973 87.04C54.8493 86.992 54.7353 86.968 54.5553 86.968H49.2093C48.5253 86.968 47.9373 86.722 47.4453 86.23C46.9653 85.738 46.7253 85.156 46.7253 84.484V83.044C46.7253 82.36 46.9653 81.778 47.4453 81.298C47.9373 80.806 48.5253 80.56 49.2093 80.56H54.8433C55.5273 80.56 56.1153 80.806 56.6073 81.298C57.0993 81.778 57.3453 82.36 57.3453 83.044V83.44H54.9693V83.332C54.9693 83.14 54.9453 83.026 54.8973 82.99C54.8493 82.942 54.7353 82.918 54.5553 82.918H49.4973C49.3053 82.918 49.1853 82.942 49.1373 82.99C49.1013 83.026 49.0833 83.14 49.0833 83.332V84.178C49.0833 84.37 49.1013 84.49 49.1373 84.538C49.1853 84.574 49.3053 84.592 49.4973 84.592H54.8433C55.5273 84.592 56.1153 84.838 56.6073 85.33C57.0993 85.822 57.3453 86.404 57.3453 87.076V88.516C57.3453 89.2 57.0993 89.788 56.6073 90.28C56.1153 90.76 55.5273 91 54.8433 91H49.2093ZM61.3571 91C60.6731 91 60.0851 90.76 59.5931 90.28C59.1131 89.788 58.8731 89.2 58.8731 88.516V83.044C58.8731 82.36 59.1131 81.778 59.5931 81.298C60.0851 80.806 60.6731 80.56 61.3571 80.56H66.9911C67.6751 80.56 68.2571 80.806 68.7371 81.298C69.2291 81.778 69.4751 82.36 69.4751 83.044V88.516C69.4751 89.2 69.2291 89.788 68.7371 90.28C68.2571 90.76 67.6751 91 66.9911 91H61.3571ZM61.8611 88.642H66.4871C66.8231 88.642 67.0091 88.624 67.0451 88.588C67.0931 88.54 67.1171 88.348 67.1171 88.012V83.548C67.1171 83.212 67.0931 83.026 67.0451 82.99C67.0091 82.942 66.8231 82.918 66.4871 82.918H61.8611C61.5251 82.918 61.3331 82.942 61.2851 82.99C61.2491 83.026 61.2311 83.212 61.2311 83.548V88.012C61.2311 88.348 61.2491 88.54 61.2851 88.588C61.3331 88.624 61.5251 88.642 61.8611 88.642ZM71.39 91V80.56H84.332C85.016 80.56 85.598 80.806 86.078 81.298C86.57 81.778 86.816 82.36 86.816 83.044V91H84.476V83.548C84.476 83.212 84.452 83.026 84.404 82.99C84.356 82.942 84.17 82.918 83.846 82.918H80.93C80.594 82.918 80.402 82.942 80.354 82.99C80.318 83.026 80.3 83.212 80.3 83.548V91H77.924V83.548C77.924 83.212 77.9 83.026 77.852 82.99C77.816 82.942 77.63 82.918 77.294 82.918H74.378C74.042 82.918 73.85 82.942 73.802 82.99C73.766 83.026 73.748 83.212 73.748 83.548V91H71.39ZM90.9059 91C90.2219 91 89.6339 90.76 89.1419 90.28C88.6619 89.788 88.4219 89.2 88.4219 88.516V83.044C88.4219 82.36 88.6619 81.778 89.1419 81.298C89.6339 80.806 90.2219 80.56 90.9059 80.56H96.5399C97.2239 80.56 97.8059 80.806 98.2859 81.298C98.7779 81.778 99.0239 82.36 99.0239 83.044V86.968H90.7799V88.012C90.7799 88.348 90.7979 88.54 90.8339 88.588C90.8819 88.624 91.0739 88.642 91.4099 88.642H99.0239V91H90.9059ZM90.7799 84.844H96.6659V83.548C96.6659 83.212 96.6419 83.026 96.5939 82.99C96.5579 82.942 96.3719 82.918 96.0359 82.918H91.4099C91.0739 82.918 90.8819 82.942 90.8339 82.99C90.7979 83.026 90.7799 83.212 90.7799 83.548V84.844ZM108.925 91C108.241 91 107.653 90.754 107.161 90.262C106.669 89.77 106.423 89.182 106.423 88.498V87.508H108.799V87.976C108.799 88.312 108.817 88.504 108.853 88.552C108.901 88.588 109.093 88.606 109.429 88.606H116.359C116.695 88.606 116.881 88.588 116.917 88.552C116.965 88.504 116.989 88.312 116.989 87.976V86.338C116.989 86.002 116.965 85.816 116.917 85.78C116.881 85.732 116.695 85.708 116.359 85.708H108.925C108.241 85.708 107.653 85.462 107.161 84.97C106.669 84.478 106.423 83.89 106.423 83.206V80.542C106.423 79.858 106.669 79.27 107.161 78.778C107.653 78.286 108.241 78.04 108.925 78.04H116.881C117.565 78.04 118.153 78.286 118.645 78.778C119.137 79.27 119.383 79.858 119.383 80.542V81.532H116.989V81.064C116.989 80.728 116.965 80.542 116.917 80.506C116.881 80.458 116.695 80.434 116.359 80.434H109.429C109.093 80.434 108.901 80.458 108.853 80.506C108.817 80.542 108.799 80.728 108.799 81.064V82.702C108.799 83.038 108.817 83.224 108.853 83.26C108.901 83.296 109.093 83.314 109.429 83.314H116.881C117.565 83.314 118.153 83.566 118.645 84.07C119.137 84.562 119.383 85.15 119.383 85.834V88.498C119.383 89.182 119.137 89.77 118.645 90.262C118.153 90.754 117.565 91 116.881 91H108.925ZM123.742 91C123.058 91 122.47 90.76 121.978 90.28C121.498 89.788 121.258 89.2 121.258 88.516V83.044C121.258 82.36 121.498 81.778 121.978 81.298C122.47 80.806 123.058 80.56 123.742 80.56H129.376C130.06 80.56 130.642 80.806 131.122 81.298C131.614 81.778 131.86 82.36 131.86 83.044V86.968H123.616V88.012C123.616 88.348 123.634 88.54 123.67 88.588C123.718 88.624 123.91 88.642 124.246 88.642H131.86V91H123.742ZM123.616 84.844H129.502V83.548C129.502 83.212 129.478 83.026 129.43 82.99C129.394 82.942 129.208 82.918 128.872 82.918H124.246C123.91 82.918 123.718 82.942 123.67 82.99C123.634 83.026 123.616 83.212 123.616 83.548V84.844ZM136.223 91C135.539 91 134.951 90.76 134.459 90.28C133.979 89.788 133.739 89.2 133.739 88.516V84.592H141.983V83.548C141.983 83.212 141.959 83.026 141.911 82.99C141.875 82.942 141.689 82.918 141.353 82.918H133.739V80.56H141.857C142.541 80.56 143.123 80.806 143.603 81.298C144.095 81.778 144.341 82.36 144.341 83.044V91H136.223ZM136.727 88.642H141.983V86.716H136.097V88.012C136.097 88.348 136.115 88.54 136.151 88.588C136.199 88.624 136.391 88.642 136.727 88.642ZM145.885 91V83.044C145.885 82.36 146.125 81.778 146.605 81.298C147.097 80.806 147.685 80.56 148.369 80.56H154.165V82.918H148.873C148.537 82.918 148.345 82.942 148.297 82.99C148.261 83.026 148.243 83.212 148.243 83.548V91H145.885ZM157.756 91C157.072 91 156.484 90.76 155.992 90.28C155.512 89.788 155.272 89.2 155.272 88.516V83.044C155.272 82.36 155.512 81.778 155.992 81.298C156.484 80.806 157.072 80.56 157.756 80.56H165.856V82.918H158.26C157.924 82.918 157.732 82.942 157.684 82.99C157.648 83.026 157.63 83.212 157.63 83.548V88.012C157.63 88.348 157.648 88.54 157.684 88.588C157.732 88.624 157.924 88.642 158.26 88.642H165.874V91H157.756ZM167.384 91V77.14H169.742V80.56H175.502C176.174 80.56 176.756 80.806 177.248 81.298C177.74 81.778 177.986 82.36 177.986 83.044V91H175.628V83.548C175.628 83.212 175.604 83.026 175.556 82.99C175.52 82.942 175.334 82.918 174.998 82.918H170.372C170.036 82.918 169.844 82.942 169.796 82.99C169.76 83.026 169.742 83.212 169.742 83.548V91H167.384Z" fill="#494368"/>
</svg>
