<svg width="229" height="266" viewBox="0 0 229 266" fill="none" xmlns="http://www.w3.org/2000/svg">
<mask id="mask0" mask-type="alpha" maskUnits="userSpaceOnUse" x="0" y="0" width="229" height="266">
<path d="M228.294 69.627C228.294 69.424 228.269 69.224 228.256 69.024C228.246 68.854 228.246 68.678 228.222 68.51C228.192 68.303 228.142 68.103 228.099 67.9C228.062 67.739 228.046 67.573 228.001 67.411C227.946 67.202 227.867 67.004 227.794 66.799C227.744 66.654 227.703 66.501 227.642 66.359C227.552 66.149 227.442 65.946 227.339 65.742C227.278 65.619 227.221 65.487 227.153 65.366C227.025 65.148 226.877 64.946 226.736 64.743C226.666 64.645 226.609 64.541 226.541 64.447C226.345 64.19 226.129 63.954 225.904 63.72C225.872 63.683 225.842 63.645 225.806 63.61C225.286 63.083 224.685 62.619 224.025 62.237L118.211 1.14201C115.558 -0.385988 112.29 -0.379988 109.642 1.15601L4.51205 62.25C4.34605 62.346 4.19905 62.46 4.04405 62.566C3.89105 62.669 3.73005 62.762 3.58705 62.873C3.43705 62.992 3.29704 63.123 3.15504 63.251C3.01804 63.371 2.87506 63.485 2.74506 63.613C2.61106 63.749 2.49304 63.902 2.36804 64.045C2.24904 64.179 2.12205 64.309 2.02005 64.45C1.90405 64.602 1.80305 64.766 1.69705 64.927C1.60105 65.075 1.49204 65.217 1.40504 65.367C1.31004 65.532 1.23705 65.707 1.15305 65.878C1.07305 66.04 0.980047 66.192 0.914047 66.358C0.844047 66.536 0.794043 66.718 0.728043 66.898C0.671043 67.068 0.602054 67.234 0.555054 67.407C0.509054 67.587 0.485044 67.773 0.448044 67.953C0.409044 68.137 0.359045 68.316 0.334045 68.505C0.314045 68.69 0.314049 68.876 0.300049 69.063C0.286049 69.247 0.261047 69.433 0.261047 69.62L4.57216e-05 195.974C-0.00995428 199.035 1.62104 201.862 4.26904 203.394L110.084 264.484C110.084 264.485 110.088 264.485 110.09 264.488C111.412 265.25 112.884 265.632 114.362 265.632C114.726 265.632 115.099 265.607 115.465 265.559C115.592 265.543 115.715 265.509 115.843 265.486C116.082 265.443 116.32 265.404 116.555 265.343C116.698 265.304 116.837 265.247 116.98 265.202C117.192 265.132 117.408 265.07 117.62 264.986C117.767 264.922 117.908 264.84 118.051 264.77C118.241 264.679 118.441 264.597 118.622 264.49C118.629 264.488 118.632 264.483 118.638 264.48C118.643 264.479 118.649 264.479 118.652 264.474L223.782 203.379C226.411 201.853 228.026 199.046 228.032 196.008L228.294 69.656V69.64V69.627V69.627Z" fill="white"/>
</mask>
<g mask="url(#mask0)">
<path d="M228.294 69.627C228.294 69.424 228.269 69.224 228.256 69.024C228.246 68.854 228.246 68.678 228.222 68.51C228.192 68.303 228.142 68.103 228.099 67.9C228.062 67.739 228.046 67.573 228.001 67.411C227.946 67.202 227.867 67.004 227.794 66.799C227.744 66.654 227.703 66.501 227.642 66.359C227.552 66.149 227.442 65.946 227.339 65.742C227.278 65.619 227.221 65.487 227.153 65.366C227.025 65.148 226.877 64.946 226.736 64.743C226.666 64.645 226.609 64.541 226.541 64.447C226.345 64.19 226.129 63.954 225.904 63.72C225.872 63.683 225.842 63.645 225.806 63.61C225.286 63.083 224.685 62.619 224.025 62.237L118.211 1.14201C115.558 -0.385988 112.29 -0.379988 109.642 1.15601L4.51205 62.25C4.34605 62.346 4.19905 62.46 4.04405 62.566C3.89105 62.669 3.73005 62.762 3.58705 62.873C3.43705 62.992 3.29704 63.123 3.15504 63.251C3.01804 63.371 2.87506 63.485 2.74506 63.613C2.61106 63.749 2.49304 63.902 2.36804 64.045C2.24904 64.179 2.12205 64.309 2.02005 64.45C1.90405 64.602 1.80305 64.766 1.69705 64.927C1.60105 65.075 1.49204 65.217 1.40504 65.367C1.31004 65.532 1.23705 65.707 1.15305 65.878C1.07305 66.04 0.980047 66.192 0.914047 66.358C0.844047 66.536 0.794043 66.718 0.728043 66.898C0.671043 67.068 0.602054 67.234 0.555054 67.407C0.509054 67.587 0.485044 67.773 0.448044 67.953C0.409044 68.137 0.359045 68.316 0.334045 68.505C0.314045 68.69 0.314049 68.876 0.300049 69.063C0.286049 69.247 0.261047 69.433 0.261047 69.62L4.57216e-05 195.974C-0.00995428 199.035 1.62104 201.862 4.26904 203.394L110.084 264.484C110.084 264.485 110.088 264.485 110.09 264.488C111.412 265.25 112.884 265.632 114.362 265.632C114.726 265.632 115.099 265.607 115.465 265.559C115.592 265.543 115.715 265.509 115.843 265.486C116.082 265.443 116.32 265.404 116.555 265.343C116.698 265.304 116.837 265.247 116.98 265.202C117.192 265.132 117.408 265.07 117.62 264.986C117.767 264.922 117.908 264.84 118.051 264.77C118.241 264.679 118.441 264.597 118.622 264.49C118.629 264.488 118.632 264.483 118.638 264.48C118.643 264.479 118.649 264.479 118.652 264.474L223.782 203.379C226.411 201.853 228.026 199.046 228.032 196.008L228.294 69.656V69.64V69.627V69.627Z" fill="#EE0E51"/>
<path fill-rule="evenodd" clip-rule="evenodd" d="M114.147 23.0972L35.593 66.3982V159.996C35.596 162.514 36.717 164.836 38.539 166.097L111.309 205.426C112.219 206.056 113.131 206.379 114.147 206.379C115.169 206.379 116.19 206.061 117.107 205.426L189.774 166.084C191.58 164.827 192.159 162.169 192.162 159.659C192.163 157.986 192.163 126.899 192.162 66.3982L114.147 23.0962V23.0972Z" fill="#505458" fill-opacity="0.2"/>
<path fill-rule="evenodd" clip-rule="evenodd" d="M114.147 23.0972C113.892 145.101 114.104 206.104 114.782 206.104C115.802 206.104 116.824 205.784 117.741 205.15L189.774 166.084C191.58 164.827 192.159 162.169 192.162 159.659C192.163 157.986 192.163 126.994 192.162 66.6822L114.147 23.0962V23.0972Z" fill="#505458" fill-opacity="0.2"/>
<path fill-rule="evenodd" clip-rule="evenodd" d="M116.852 137.66C115.03 136.607 112.774 136.611 110.952 137.671L38.521 179.761C36.703 180.817 35.589 182.76 35.594 184.861C35.596 186.961 36.717 188.899 38.537 189.95L111.441 232.042C112.351 232.57 113.367 232.829 114.384 232.829C115.408 232.829 116.427 232.566 117.344 232.033L189.774 189.943C191.591 188.887 192.217 186.735 192.213 184.636C192.211 182.536 191.578 180.804 189.758 179.753L116.852 137.66V137.66Z" fill="#505458" fill-opacity="0.5"/>
</g>
</svg>
