<svg width="821" height="781" viewBox="0 0 821 781" fill="none" xmlns="http://www.w3.org/2000/svg">
<g clip-path="url(#clip0)">
<path d="M496.415 43.8077L69.12 135.49L195.795 725.873L623.09 634.191L496.415 43.8077Z" fill="#E0E0E0"/>
<g opacity="0.5">
<path opacity="0.5" d="M491.341 55.3389L78.4875 143.922L200.881 714.35L613.734 625.766L491.341 55.3389Z" fill="url(#paint0_linear)"/>
</g>
<path d="M486.981 60.6654L84.6385 146.994L204.327 704.818L606.67 618.489L486.981 60.6654Z" fill="#FAFAFA"/>
<path d="M380.947 58.1204L181.35 100.947L191.724 149.296L391.321 106.47L380.947 58.1204Z" fill="url(#paint1_linear)"/>
<path d="M271.01 32.3099C255.6 35.6199 245.85 51.0899 249.24 66.8599C252.63 82.6299 267.86 92.7499 283.24 89.4399C298.62 86.1299 308.4 70.6599 305.01 54.8899C301.62 39.1199 286.42 28.9999 271.01 32.3099ZM280.68 77.4099C277.423 78.1866 274.009 77.976 270.872 76.805C267.735 75.6339 265.018 73.5555 263.067 70.8345C261.116 68.1136 260.019 64.8733 259.917 61.5267C259.814 58.1801 260.71 54.8787 262.491 52.0432C264.271 49.2078 266.856 46.9668 269.915 45.6057C272.974 44.2446 276.369 43.8252 279.668 44.4009C282.966 44.9765 286.018 46.5212 288.435 48.838C290.852 51.1548 292.525 54.1389 293.24 57.4099C293.734 59.548 293.801 61.7628 293.436 63.9268C293.072 66.0908 292.283 68.1615 291.116 70.0199C289.949 71.8783 288.426 73.4878 286.635 74.756C284.844 76.0242 282.82 76.9261 280.68 77.4099V77.4099Z" fill="url(#paint2_linear)"/>
<path d="M378.4 56.4976L183.007 98.4219L192.924 144.64L388.317 102.716L378.4 56.4976Z" fill="#E84A5F"/>
<path d="M271.01 32.3099C265.609 33.4691 260.673 36.2038 256.827 40.1682C252.98 44.1326 250.395 49.1486 249.399 54.5819C248.403 60.0153 249.041 65.622 251.231 70.693C253.421 75.7641 257.066 80.0718 261.705 83.0714C266.343 86.0709 271.767 87.6277 277.29 87.5448C282.814 87.462 288.188 85.7431 292.735 82.6057C297.281 79.4683 300.795 75.0532 302.832 69.9187C304.87 64.7842 305.339 59.1609 304.18 53.7599C303.411 50.1734 301.942 46.7736 299.859 43.7546C297.776 40.7355 295.118 38.1565 292.038 36.1646C288.958 34.1728 285.515 32.8072 281.907 32.1458C278.299 31.4844 274.596 31.5402 271.01 32.3099V32.3099ZM280.25 75.4099C277.133 76.0788 273.887 75.8083 270.923 74.6324C267.96 73.4566 265.411 71.4283 263.6 68.8041C261.79 66.1798 260.798 63.0775 260.75 59.8895C260.702 56.7015 261.601 53.571 263.333 50.8938C265.064 48.2166 267.551 46.1131 270.478 44.8492C273.405 43.5854 276.642 43.2179 279.778 43.7934C282.914 44.3689 285.809 45.8614 288.096 48.0822C290.384 50.303 291.962 53.1524 292.63 56.2699C293.526 60.4497 292.725 64.8142 290.404 68.4035C288.082 71.9929 284.43 74.5131 280.25 75.4099V75.4099Z" fill="#E84A5F"/>
<path d="M694.91 116.91H257.89V720.73H694.91V116.91Z" fill="#E0E0E0"/>
<g opacity="0.5">
<path opacity="0.5" d="M687.53 127.12H265.28V710.53H687.53V127.12Z" fill="url(#paint3_linear)"/>
</g>
<path d="M682.15 131.42H270.65V701.94H682.15V131.42Z" fill="white"/>
<path d="M579.01 106.68H374.87V156.13H579.01V106.68Z" fill="url(#paint4_linear)"/>
<path d="M476.94 58.4102C461.18 58.4102 448.4 71.4902 448.4 87.6302C448.4 103.77 461.18 116.85 476.94 116.85C492.7 116.85 505.48 103.77 505.48 87.6302C505.48 71.4902 492.7 58.4102 476.94 58.4102ZM476.94 104.49C473.59 104.57 470.291 103.649 467.467 101.845C464.642 100.042 462.419 97.4371 461.081 94.3642C459.744 91.2913 459.352 87.8894 459.957 84.593C460.561 81.2966 462.135 78.2551 464.476 75.8571C466.817 73.459 469.82 71.813 473.101 71.1294C476.382 70.4458 479.792 70.7555 482.896 72.019C486 73.2824 488.658 75.4424 490.528 78.223C492.399 81.0036 493.399 84.2787 493.4 87.6302C493.432 92.035 491.718 96.2732 488.634 99.4178C485.549 102.562 481.345 104.357 476.94 104.41V104.49Z" fill="url(#paint5_linear)"/>
<path d="M576.86 104.56H377.02V151.83H576.86V104.56Z" fill="#E84A5F"/>
<path d="M476.94 58.4102C471.416 58.4102 466.016 60.0482 461.423 63.1172C456.83 66.1862 453.25 70.5483 451.136 75.6518C449.022 80.7554 448.469 86.3711 449.547 91.789C450.624 97.2069 453.284 102.184 457.191 106.09C461.097 109.996 466.073 112.656 471.491 113.733C476.909 114.811 482.525 114.258 487.628 112.144C492.732 110.03 497.094 106.45 500.163 101.857C503.232 97.2642 504.87 91.8642 504.87 86.3401C504.87 78.9327 501.927 71.8286 496.69 66.5907C491.452 61.3528 484.348 58.4102 476.94 58.4102ZM476.94 102.46C473.754 102.456 470.641 101.508 467.994 99.7365C465.346 97.9646 463.283 95.4479 462.065 92.5044C460.847 89.5608 460.528 86.3223 461.149 83.1977C461.77 80.0732 463.303 77.2027 465.554 74.9487C467.806 72.6947 470.674 71.1582 473.798 70.5333C476.922 69.9084 480.161 70.2231 483.106 71.4377C486.051 72.6522 488.57 74.7121 490.345 77.3574C492.12 80.0026 493.072 83.1145 493.08 86.3002C493.079 88.4179 492.66 90.5146 491.848 92.4706C491.036 94.4265 489.847 96.2032 488.348 97.6993C486.849 99.1954 485.07 100.381 483.113 101.19C481.155 101.998 479.058 102.413 476.94 102.41V102.46Z" fill="#E84A5F"/>
<g opacity="0.5">
<path opacity="0.5" d="M19.03 737.05H15.27V758.38H19.03V737.05Z" fill="#47E6B1"/>
<path opacity="0.5" d="M27.8199 749.6V745.84H6.48999V749.6H27.8199Z" fill="#47E6B1"/>
</g>
<g opacity="0.5">
<path opacity="0.5" d="M455.25 0H451.49V21.33H455.25V0Z" fill="#47E6B1"/>
<path opacity="0.5" d="M464.04 12.5397V8.77979L442.71 8.77979V12.5397L464.04 12.5397Z" fill="#47E6B1"/>
</g>
<path opacity="0.5" d="M771.08 772.56C770.043 772.109 769.208 771.292 768.734 770.265C768.26 769.238 768.181 768.072 768.51 766.99C768.563 766.825 768.597 766.653 768.61 766.48V766.48C768.64 765.985 768.509 765.493 768.238 765.078C767.967 764.662 767.569 764.345 767.103 764.174C766.638 764.002 766.129 763.985 765.653 764.125C765.177 764.265 764.759 764.554 764.46 764.95V764.95C764.356 765.089 764.269 765.24 764.2 765.4C763.749 766.437 762.932 767.272 761.905 767.746C760.878 768.22 759.712 768.3 758.63 767.97C758.465 767.917 758.293 767.883 758.12 767.87V767.87C757.625 767.84 757.133 767.971 756.718 768.242C756.302 768.514 755.985 768.911 755.814 769.377C755.642 769.842 755.625 770.351 755.765 770.827C755.905 771.303 756.194 771.721 756.59 772.02V772.02C756.729 772.124 756.88 772.211 757.04 772.28C758.077 772.732 758.912 773.549 759.386 774.576C759.86 775.603 759.94 776.768 759.61 777.85C759.557 778.016 759.523 778.187 759.51 778.36V778.36C759.48 778.855 759.611 779.347 759.882 779.763C760.153 780.178 760.551 780.495 761.017 780.666C761.482 780.838 761.991 780.855 762.467 780.715C762.943 780.576 763.361 780.286 763.66 779.89V779.89C763.764 779.751 763.851 779.6 763.92 779.44C764.372 778.403 765.189 777.568 766.216 777.094C767.243 776.62 768.408 776.541 769.49 776.87C769.656 776.923 769.827 776.957 770 776.97C770.495 777 770.987 776.87 771.402 776.598C771.818 776.327 772.135 775.929 772.306 775.463C772.478 774.998 772.495 774.489 772.355 774.013C772.216 773.537 771.926 773.119 771.53 772.82V772.82C771.391 772.716 771.24 772.629 771.08 772.56V772.56Z" fill="#4D8AF0"/>
<path opacity="0.5" d="M136.67 567.5C135.633 567.049 134.798 566.232 134.324 565.205C133.85 564.178 133.77 563.012 134.1 561.93C134.153 561.765 134.187 561.593 134.2 561.42V561.42C134.23 560.925 134.099 560.433 133.828 560.018C133.557 559.602 133.159 559.285 132.693 559.114C132.228 558.942 131.719 558.925 131.243 559.065C130.767 559.205 130.349 559.494 130.05 559.89V559.89C129.946 560.029 129.859 560.18 129.79 560.34C129.339 561.377 128.522 562.212 127.494 562.686C126.467 563.16 125.302 563.24 124.22 562.91C124.054 562.857 123.883 562.823 123.71 562.81V562.81C123.215 562.78 122.723 562.911 122.308 563.182C121.892 563.453 121.575 563.851 121.404 564.317C121.232 564.782 121.215 565.291 121.355 565.767C121.494 566.243 121.784 566.661 122.18 566.96V566.96C122.319 567.064 122.47 567.151 122.63 567.22C123.667 567.672 124.502 568.489 124.976 569.516C125.45 570.543 125.53 571.708 125.2 572.79C125.147 572.956 125.113 573.127 125.1 573.3C125.07 573.795 125.201 574.287 125.472 574.702C125.743 575.118 126.141 575.435 126.607 575.606C127.072 575.778 127.581 575.795 128.057 575.655C128.533 575.516 128.951 575.226 129.25 574.83V574.83C129.354 574.691 129.441 574.54 129.51 574.38C129.961 573.343 130.778 572.508 131.805 572.034C132.833 571.56 133.998 571.481 135.08 571.81C135.245 571.863 135.417 571.897 135.59 571.91C136.085 571.94 136.577 571.81 136.992 571.538C137.408 571.267 137.725 570.869 137.896 570.403C138.068 569.938 138.085 569.429 137.945 568.953C137.805 568.477 137.516 568.059 137.12 567.76V567.76C136.981 567.656 136.83 567.569 136.67 567.5Z" fill="#FDD835"/>
<path opacity="0.5" d="M665.08 68.1798C664.043 67.7283 663.208 66.9114 662.734 65.8843C662.26 64.8573 662.181 63.6918 662.51 62.6098C662.563 62.4443 662.597 62.2731 662.61 62.0998C662.64 61.6045 662.509 61.1128 662.238 60.6975C661.967 60.2821 661.569 59.9651 661.103 59.7935C660.638 59.6219 660.129 59.6047 659.653 59.7445C659.177 59.8843 658.759 60.1737 658.46 60.5698V60.5698C658.356 60.7091 658.269 60.8601 658.2 61.0198C657.749 62.0569 656.932 62.8918 655.905 63.3657C654.878 63.8396 653.712 63.9193 652.63 63.5898C652.465 63.5366 652.293 63.5031 652.12 63.4898V63.4898C651.625 63.46 651.133 63.5904 650.718 63.8618C650.302 64.1331 649.985 64.531 649.814 64.9966C649.642 65.4621 649.625 65.9705 649.765 66.4466C649.905 66.9226 650.194 67.341 650.59 67.6398V67.6398C650.729 67.7438 650.88 67.831 651.04 67.8998C652.077 68.3513 652.912 69.1682 653.386 70.1953C653.86 71.2223 653.94 72.3878 653.61 73.4698C653.557 73.6353 653.523 73.8065 653.51 73.9798V73.9798C653.48 74.4751 653.611 74.9668 653.882 75.3822C654.153 75.7975 654.551 76.1145 655.017 76.2861C655.482 76.4577 655.991 76.4749 656.467 76.3351C656.943 76.1953 657.361 75.9059 657.66 75.5098V75.5098C657.764 75.3705 657.851 75.2195 657.92 75.0598C658.372 74.0227 659.189 73.1878 660.216 72.7139C661.243 72.24 662.408 72.1603 663.49 72.4898C663.656 72.543 663.827 72.5765 664 72.5898C664.495 72.6196 664.987 72.4892 665.402 72.2178C665.818 71.9465 666.135 71.5486 666.306 71.083C666.478 70.6175 666.495 70.1091 666.355 69.633C666.216 69.157 665.926 68.7386 665.53 68.4398V68.4398C665.391 68.3358 665.24 68.2485 665.08 68.1798V68.1798Z" fill="#FDD835"/>
<path opacity="0.5" d="M812.64 322C816.799 322 820.17 318.629 820.17 314.47C820.17 310.311 816.799 306.94 812.64 306.94C808.481 306.94 805.11 310.311 805.11 314.47C805.11 318.629 808.481 322 812.64 322Z" fill="#F55F44"/>
<path opacity="0.5" d="M230.73 754.18C234.889 754.18 238.26 750.809 238.26 746.65C238.26 742.491 234.889 739.12 230.73 739.12C226.571 739.12 223.2 742.491 223.2 746.65C223.2 750.809 226.571 754.18 230.73 754.18Z" fill="#F55F44"/>
<path opacity="0.5" d="M735.31 484.76C739.469 484.76 742.84 481.389 742.84 477.23C742.84 473.071 739.469 469.7 735.31 469.7C731.151 469.7 727.78 473.071 727.78 477.23C727.78 481.389 731.151 484.76 735.31 484.76Z" fill="#F55F44"/>
<path opacity="0.5" d="M87.14 103.88C91.2987 103.88 94.67 100.509 94.67 96.3498C94.67 92.1911 91.2987 88.8198 87.14 88.8198C82.9813 88.8198 79.61 92.1911 79.61 96.3498C79.61 100.509 82.9813 103.88 87.14 103.88Z" fill="#4D8AF0"/>
<path opacity="0.5" d="M7.53 309.29C11.6887 309.29 15.06 305.919 15.06 301.76C15.06 297.601 11.6887 294.23 7.53 294.23C3.3713 294.23 0 297.601 0 301.76C0 305.919 3.3713 309.29 7.53 309.29Z" fill="#47E6B1"/>
</g>
<defs>
<linearGradient id="paint0_linear" x1="407.303" y1="670.059" x2="284.909" y2="99.6317" gradientUnits="userSpaceOnUse">
<stop stop-color="#808080" stop-opacity="0.25"/>
<stop offset="0.54" stop-color="#808080" stop-opacity="0.12"/>
<stop offset="1" stop-color="#808080" stop-opacity="0.1"/>
</linearGradient>
<linearGradient id="paint1_linear" x1="109806" y1="-14298.9" x2="109293" y2="-16689.8" gradientUnits="userSpaceOnUse">
<stop stop-color="#808080" stop-opacity="0.25"/>
<stop offset="0.54" stop-color="#808080" stop-opacity="0.12"/>
<stop offset="1" stop-color="#808080" stop-opacity="0.1"/>
</linearGradient>
<linearGradient id="paint2_linear" x1="32063.7" y1="1630.97" x2="31348.1" y2="-1704.52" gradientUnits="userSpaceOnUse">
<stop stop-color="#808080" stop-opacity="0.25"/>
<stop offset="0.54" stop-color="#808080" stop-opacity="0.12"/>
<stop offset="1" stop-color="#808080" stop-opacity="0.1"/>
</linearGradient>
<linearGradient id="paint3_linear" x1="201425" y1="414657" x2="201425" y2="74290.2" gradientUnits="userSpaceOnUse">
<stop stop-color="#808080" stop-opacity="0.25"/>
<stop offset="0.54" stop-color="#808080" stop-opacity="0.12"/>
<stop offset="1" stop-color="#808080" stop-opacity="0.1"/>
</linearGradient>
<linearGradient id="paint4_linear" x1="97737.4" y1="7827.31" x2="97737.4" y2="5382.01" gradientUnits="userSpaceOnUse">
<stop stop-color="#808080" stop-opacity="0.25"/>
<stop offset="0.54" stop-color="#808080" stop-opacity="0.12"/>
<stop offset="1" stop-color="#808080" stop-opacity="0.1"/>
</linearGradient>
<linearGradient id="paint5_linear" x1="38512.8" y1="10366.6" x2="38512.8" y2="6951.41" gradientUnits="userSpaceOnUse">
<stop stop-color="#808080" stop-opacity="0.25"/>
<stop offset="0.54" stop-color="#808080" stop-opacity="0.12"/>
<stop offset="1" stop-color="#808080" stop-opacity="0.1"/>
</linearGradient>
<clipPath id="clip0">
<rect width="820.16" height="780.81" fill="white"/>
</clipPath>
</defs>
</svg>
