<svg width="165" height="165" viewBox="0 0 165 165" fill="none" xmlns="http://www.w3.org/2000/svg">
<path d="M58.7297 91.7394L55.5425 82.7063L55.4458 82.7417L27.6536 92.5482L33.8508 110.112L51.3176 103.947C51.2565 103.472 51.2264 102.994 51.2274 102.516C51.2275 100.168 51.9465 97.8772 53.2878 95.9506C54.6291 94.024 56.5282 92.5543 58.7297 91.7394Z" fill="#72BCEF"/>
<path d="M28.8234 95.8611L32.681 106.799L13.8993 113.428L13.7994 113.463L9.94189 102.526L10.0386 102.49L28.8234 95.8611Z" fill="#FADF4A"/>
<path d="M9.19102 100.399L3.54492 102.39L8.90742 117.582L14.5503 115.59L9.19102 100.399Z" fill="#50A6EA"/>
<path d="M149.29 79.7736C148.648 81.0649 148.317 82.4881 148.323 83.9298C148.328 85.3716 148.67 86.7921 149.322 88.0784C148.03 87.4346 146.607 87.1003 145.163 87.102C143.72 87.1036 142.297 87.4413 141.007 88.0881C141.649 86.7968 141.98 85.3736 141.974 83.9319C141.968 82.4901 141.626 81.0696 140.975 79.7833C142.267 80.4271 143.69 80.7614 145.133 80.7598C146.577 80.7581 147.999 80.4205 149.29 79.7736V79.7736Z" fill="#CCD3DF"/>
<path d="M103.67 102.526C103.67 102.677 103.73 102.823 103.837 102.93C103.944 103.037 104.09 103.098 104.242 103.098C104.393 103.098 104.539 103.037 104.646 102.93C104.753 102.823 104.814 102.677 104.814 102.526" fill="#00AEEF"/>
<path d="M117.595 25.0014C118.335 25.0011 119.073 24.9124 119.793 24.7371C118.436 26.3944 117.695 28.4702 117.695 30.612C117.694 31.3615 117.785 32.1083 117.965 32.8356C116.85 31.9201 115.536 31.2765 114.129 30.9555C112.722 30.6344 111.26 30.6448 109.857 30.9858C110.771 29.8707 111.413 28.5578 111.73 27.1514C112.048 25.745 112.033 24.2838 111.688 22.8841C113.352 24.2523 115.44 25.0006 117.595 25.0014V25.0014Z" fill="#6D7486"/>
<path d="M153.444 65.9065C153.783 65.9059 154.116 66.0061 154.399 66.1945C154.682 66.3828 154.902 66.6509 155.033 66.9647C155.163 67.2785 155.198 67.6239 155.132 67.9573C155.066 68.2907 154.903 68.5971 154.663 68.8377C154.422 69.0782 154.116 69.2421 153.783 69.3086C153.45 69.3752 153.104 69.3414 152.79 69.2114C152.476 69.0815 152.208 68.8614 152.019 68.5788C151.83 68.2963 151.729 67.9641 151.729 67.6242C151.729 67.1692 151.909 66.7327 152.231 66.4106C152.552 66.0885 152.989 65.9072 153.444 65.9065Z" fill="#CCD3DF"/>
<path d="M123.695 74.6464C123.699 77.8983 122.766 81.0825 121.008 83.8181L112.084 58.5331C115.465 59.6612 118.406 61.8243 120.49 64.7161C122.574 67.6079 123.695 71.082 123.695 74.6464V74.6464Z" fill="#6D7486"/>
<path d="M111.12 55.8035L100.605 59.5128L111.378 90.041L121.894 86.3285L111.12 55.8035Z" fill="#72BCEF"/>
<path d="M101.955 63.3381L54.6047 80.0475L58.7297 91.7393C60.1884 91.2007 61.7413 90.9634 63.2943 91.0418C64.8474 91.1202 66.3684 91.5127 67.7655 92.1956C69.1626 92.8785 70.4067 93.8375 71.4226 95.0148C72.4386 96.1921 73.2053 97.5631 73.6764 99.0451L110.028 86.2157L101.955 63.3381Z" fill="#FADF4A"/>
<path d="M80.8693 63.3349C80.8697 63.3724 80.8847 63.4082 80.9112 63.4348C80.9378 63.4613 80.9736 63.4763 81.0111 63.4767C81.0492 63.4767 81.0856 63.4615 81.1125 63.4347C81.1394 63.4078 81.1545 63.3713 81.1545 63.3333C81.1545 63.2952 81.1394 63.2587 81.1125 63.2319C81.0856 63.205 81.0492 63.1898 81.0111 63.1898C80.9731 63.1904 80.9369 63.2059 80.9103 63.2331C80.8837 63.2603 80.869 63.2969 80.8693 63.3349V63.3349Z" fill="#CCD3DF"/>
<path d="M89.6955 76.5858C89.2389 76.5864 88.7967 76.4255 88.4474 76.1314C88.0981 75.8374 87.8641 75.4291 87.7869 74.9791C87.7097 74.529 87.7942 74.0661 88.0256 73.6725C88.257 73.2788 88.6202 72.9797 89.051 72.8282L95.8543 70.4273C96.0938 70.3426 96.3476 70.306 96.6012 70.3194C96.8548 70.3329 97.1033 70.3961 97.3324 70.5056C97.5616 70.615 97.767 70.7686 97.9368 70.9574C98.1066 71.1462 98.2376 71.3667 98.3222 71.6061C98.4069 71.8456 98.4435 72.0993 98.4301 72.353C98.4167 72.6066 98.3534 72.8551 98.2439 73.0842C98.1345 73.3134 97.9809 73.5188 97.7921 73.6886C97.6033 73.8584 97.3828 73.9894 97.1434 74.074L90.3397 76.4752C90.1328 76.5484 89.915 76.5858 89.6955 76.5858V76.5858Z" fill="#D8A43D"/>
<path d="M68.9868 83.8941C68.5303 83.8946 68.0884 83.7335 67.7392 83.4395C67.3901 83.1454 67.1562 82.7374 67.079 82.2875C67.0019 81.8376 67.0864 81.3748 67.3175 80.9812C67.5487 80.5876 67.9117 80.2885 68.3422 80.1368L83.7929 74.6841C84.0324 74.5996 84.2861 74.5631 84.5397 74.5766C84.7933 74.5902 85.0417 74.6535 85.2707 74.7631C85.4998 74.8726 85.7051 75.0262 85.8748 75.2151C86.0445 75.404 86.1754 75.6245 86.2599 75.8639C86.3444 76.1034 86.3809 76.3571 86.3674 76.6107C86.3538 76.8642 86.2904 77.1127 86.1809 77.3417C86.0713 77.5708 85.9177 77.7761 85.7288 77.9458C85.54 78.1155 85.3195 78.2463 85.0801 78.3309L69.6294 83.7836C69.423 83.8566 69.2057 83.894 68.9868 83.8941V83.8941Z" fill="#D8A43D"/>
<path d="M87.7851 152.518C87.4374 152.519 87.0961 152.425 86.797 152.248C86.498 152.07 86.2523 151.816 86.0858 151.51L65.6362 114.014C65.5122 113.791 65.4337 113.546 65.4051 113.292C65.3765 113.039 65.3983 112.782 65.4694 112.537C65.5405 112.292 65.6594 112.063 65.8192 111.864C65.9791 111.665 66.1767 111.5 66.4007 111.378C66.6248 111.256 66.8708 111.179 67.1246 111.152C67.3784 111.126 67.6349 111.15 67.8795 111.223C68.124 111.296 68.3517 111.416 68.5494 111.578C68.747 111.739 68.9108 111.938 69.0312 112.163L89.4796 149.66C89.6402 149.954 89.7214 150.286 89.7154 150.621C89.7094 150.956 89.6163 151.284 89.4452 151.572C89.2742 151.861 89.0311 152.1 88.7399 152.266C88.4486 152.432 88.1191 152.519 87.7839 152.52L87.7851 152.518Z" fill="#4A5160"/>
<path d="M37.6542 152.518C37.3188 152.518 36.9893 152.431 36.698 152.265C36.4067 152.099 36.1636 151.86 35.9925 151.571C35.8215 151.283 35.7283 150.955 35.7223 150.62C35.7163 150.284 35.7975 149.953 35.9581 149.659L56.4287 112.121C56.6765 111.675 57.0905 111.345 57.5805 111.203C58.0705 111.061 58.5968 111.118 59.0448 111.363C59.4927 111.607 59.8259 112.018 59.9718 112.507C60.1178 112.996 60.0645 113.523 59.8238 113.973L39.3518 151.51C39.1855 151.815 38.9401 152.07 38.6414 152.247C38.3426 152.425 38.0016 152.518 37.6542 152.518V152.518Z" fill="#4A5160"/>
<path d="M72.7734 59.2595C72.108 59.2595 71.4576 59.0622 70.9043 58.6925C70.3511 58.3228 69.9199 57.7974 69.6653 57.1827C69.4107 56.568 69.3441 55.8915 69.4739 55.2389C69.6037 54.5864 69.9242 53.9869 70.3947 53.5165C70.8652 53.046 71.4647 52.7256 72.1173 52.5958C72.7699 52.4661 73.4463 52.5327 74.061 52.7874C74.6757 53.0421 75.2011 53.4733 75.5707 54.0266C75.9403 54.5799 76.1376 55.2303 76.1375 55.8957C76.1366 56.7876 75.7818 57.6427 75.1511 58.2733C74.5204 58.904 73.6653 59.2586 72.7734 59.2595V59.2595Z" fill="#867AF4"/>
<path d="M153.445 71.2745C152.723 71.2745 152.018 71.0604 151.417 70.6594C150.817 70.2583 150.349 69.6883 150.073 69.0213C149.797 68.3544 149.724 67.6205 149.865 66.9125C150.006 66.2044 150.354 65.5541 150.864 65.0436C151.375 64.5331 152.025 64.1855 152.733 64.0447C153.441 63.9038 154.175 63.9761 154.842 64.2524C155.509 64.5286 156.079 64.9965 156.48 65.5967C156.881 66.1969 157.095 66.9026 157.095 67.6245C157.094 68.5922 156.709 69.52 156.025 70.2042C155.341 70.8885 154.413 71.2734 153.445 71.2745V71.2745Z" fill="#867AF4"/>
<path d="M124.838 51.5409C124.115 51.5421 123.408 51.3288 122.806 50.9279C122.204 50.527 121.735 49.9566 121.457 49.2888C121.179 48.621 121.106 47.8859 121.246 47.1765C121.387 46.467 121.734 45.8152 122.245 45.3034C122.756 44.7916 123.408 44.4429 124.117 44.3013C124.826 44.1598 125.561 44.2318 126.229 44.5083C126.898 44.7848 127.469 45.2532 127.871 45.8545C128.273 46.4557 128.487 47.1626 128.487 47.8858C128.487 48.854 128.102 49.7825 127.418 50.4677C126.734 51.1529 125.806 51.5389 124.838 51.5409Z" fill="#867AF4"/>
<path d="M104.241 105.031C103.746 105.031 103.261 104.884 102.849 104.608C102.437 104.333 102.116 103.942 101.926 103.484C101.736 103.026 101.686 102.522 101.783 102.036C101.88 101.55 102.119 101.103 102.469 100.753C102.82 100.402 103.266 100.163 103.752 100.067C104.238 99.9701 104.742 100.02 105.2 100.209C105.658 100.399 106.049 100.72 106.325 101.133C106.6 101.545 106.747 102.029 106.747 102.525C106.746 103.189 106.482 103.826 106.012 104.296C105.542 104.765 104.906 105.03 104.241 105.031Z" fill="#867AF4"/>
<path d="M71.3435 65.4099C70.9327 65.41 70.5312 65.2882 70.1897 65.0601C69.8481 64.8319 69.5819 64.5076 69.4247 64.1282C69.2674 63.7487 69.2263 63.3312 69.3063 62.9283C69.3864 62.5254 69.5842 62.1554 69.8746 61.8649C70.165 61.5745 70.5351 61.3766 70.9379 61.2965C71.3407 61.2163 71.7583 61.2574 72.1378 61.4146C72.5173 61.5718 72.8416 61.838 73.0698 62.1795C73.298 62.521 73.4198 62.9225 73.4198 63.3332C73.4193 63.8838 73.2004 64.4117 72.8111 64.801C72.4219 65.1903 71.894 65.4093 71.3435 65.4099Z" fill="#867AF4"/>
<path d="M133.134 50.1052C132.695 50.1052 132.266 49.975 131.901 49.7311C131.536 49.4872 131.251 49.1405 131.083 48.7348C130.915 48.3292 130.871 47.8829 130.957 47.4523C131.043 47.0217 131.254 46.6262 131.565 46.3157C131.875 46.0053 132.271 45.7939 132.701 45.7083C133.132 45.6227 133.578 45.6667 133.984 45.8347C134.389 46.0028 134.736 46.2874 134.98 46.6524C135.224 47.0175 135.354 47.4467 135.354 47.8858C135.353 48.4741 135.118 49.038 134.702 49.454C134.286 49.87 133.722 50.1042 133.134 50.1052Z" fill="#867AF4"/>
<path d="M104.224 33.5752C103.814 33.5753 103.415 33.4451 103.084 33.2035C102.753 32.9619 102.507 32.6214 102.382 32.2311C102.257 31.8408 102.259 31.4209 102.389 31.032C102.518 30.6431 102.767 30.3053 103.101 30.0674L103.177 30.0129C103.384 29.862 103.618 29.7535 103.867 29.6939C104.116 29.6342 104.374 29.6246 104.627 29.6655C104.88 29.7064 105.122 29.7971 105.339 29.9322C105.556 30.0674 105.745 30.2443 105.893 30.4528C106.041 30.6613 106.147 30.8972 106.204 31.1468C106.26 31.3964 106.267 31.6547 106.223 31.9068C106.179 32.1589 106.085 32.3998 105.947 32.6154C105.809 32.8311 105.63 33.0172 105.42 33.1631L105.343 33.2175C105.017 33.4507 104.625 33.5758 104.224 33.5752Z" fill="#A6B7D0"/>
<path d="M94.1016 46.9325C93.6923 46.9323 93.2937 46.8022 92.963 46.561C92.6324 46.3198 92.3868 45.9799 92.2617 45.5902C92.1365 45.2005 92.1383 44.7812 92.2666 44.3926C92.3949 44.0039 92.6433 43.6661 92.9759 43.4276L92.9856 43.4208C93.2339 43.2453 93.5201 43.1309 93.8209 43.0868C94.1218 43.0426 94.4288 43.0701 94.717 43.1669C95.0053 43.2637 95.2666 43.4271 95.4799 43.6439C95.6931 43.8606 95.8522 44.1246 95.9443 44.4144C96.0364 44.7042 96.0588 45.0116 96.0098 45.3117C95.9607 45.6118 95.8416 45.8961 95.6621 46.1415C95.4826 46.3869 95.2477 46.5865 94.9766 46.7241C94.7054 46.8617 94.4056 46.9335 94.1016 46.9335V46.9325Z" fill="#A6B7D0"/>
<path d="M130.431 94.1928C130.02 94.1934 129.62 94.0632 129.288 93.8211C128.957 93.5789 128.711 93.2374 128.586 92.846C128.461 92.4546 128.464 92.0337 128.595 91.6443C128.726 91.2549 128.977 90.9171 129.312 90.6801L130.221 90.0355C130.64 89.7391 131.159 89.6211 131.665 89.7074C132.17 89.7938 132.621 90.0774 132.917 90.4959C133.213 90.9144 133.331 91.4335 133.245 91.939C133.159 92.4446 132.875 92.8951 132.457 93.1915L131.547 93.836C131.221 94.0681 130.831 94.1928 130.431 94.1928Z" fill="#A6B7D0"/>
<path d="M128.197 101.965C127.787 101.966 127.386 101.835 127.054 101.593C126.722 101.351 126.476 101.01 126.352 100.618C126.227 100.227 126.23 99.8059 126.361 99.4164C126.491 99.027 126.743 98.6892 127.078 98.4521L128.509 97.4386C128.716 97.2881 128.951 97.1802 129.2 97.1211C129.449 97.062 129.707 97.0529 129.96 97.0945C130.212 97.136 130.454 97.2272 130.671 97.3629C130.888 97.4986 131.076 97.676 131.224 97.8849C131.372 98.0938 131.477 98.33 131.533 98.5797C131.589 98.8295 131.595 99.0879 131.55 99.3399C131.505 99.592 131.411 99.8326 131.273 100.048C131.134 100.263 130.955 100.449 130.744 100.594L129.313 101.608C128.987 101.84 128.597 101.965 128.197 101.965V101.965Z" fill="#A6B7D0"/>
<path d="M73.6763 99.0451C74.0326 100.168 74.213 101.338 74.2113 102.516C74.2113 102.667 74.2081 102.816 74.2016 102.964C74.0895 105.847 72.897 108.582 70.8611 110.626C68.8251 112.67 66.0948 113.874 63.2124 113.998C60.33 114.121 57.5065 113.156 55.3028 111.294C53.0991 109.432 51.6765 106.809 51.3176 103.947C51.2565 103.472 51.2264 102.994 51.2273 102.516C51.2285 99.7728 52.2107 97.1206 53.9965 95.0385C55.7823 92.9563 58.2539 91.5815 60.9648 91.1623C63.6756 90.7432 66.447 91.3074 68.7782 92.7531C71.1095 94.1987 72.8468 96.4305 73.6763 99.0451V99.0451Z" fill="#ED6337"/>
<path d="M62.7193 97.6723C63.6776 97.6726 64.6143 97.9571 65.4109 98.4897C66.2075 99.0224 66.8283 99.7793 67.1948 100.665C67.5612 101.55 67.6568 102.525 67.4695 103.464C67.2823 104.404 66.8205 105.267 66.1427 105.945C65.4648 106.622 64.6013 107.083 63.6614 107.27C62.7214 107.457 61.7472 107.36 60.862 106.993C59.9768 106.626 59.2203 106.005 58.6881 105.208C58.156 104.411 57.8721 103.474 57.8724 102.516C57.8725 101.88 57.9979 101.249 58.2415 100.662C58.4852 100.074 58.8422 99.5397 59.2923 99.0899C59.7424 98.6401 60.2768 98.2834 60.8648 98.0401C61.4528 97.7969 62.083 97.6719 62.7193 97.6723V97.6723Z" fill="#604AF3"/>
</svg>
