<svg stroke="494368" height="512" viewBox="0 0 256 256" width="512" xmlns="http://www.w3.org/2000/svg">
    <path d="m244.994 25.179-40.771 20.09a3.039 3.039 0 0 0 .491.368c3.453 1.985 8.03 5.51 10.265 10.964l31.826-28.754a1.628 1.628 0 0 0 -1.811-2.668z"
          fill="#f5c84c"/>
    <g fill="#FC60A8">
        <path d="m52.753 134.32c-11.428-1.785-26.018.087-36.354 16.149-15.074 23.425 4.7 41.956-7.54 64.28a1.685 1.685 0 0 0 1.91 2.45c7.426-2.069 22.926-8.866 24.759-29.761 1.759-20.057 1.276-37.565 13.341-41.1a48.285 48.285 0 0 1 3.884-12.018z"/>
        <path d="m140.975 70.23c12.357-35.421 38.678-34.181 45.381-33.244a3.849 3.849 0 0 0 2.825-.7 34.826 34.826 0 0 1 3.891-2.467c-5.046-6.582-23.383-26.481-48.369-6.756-16.247 12.827-8.4 34.469-7.959 54.424 1.385-3.364 2.781-7.099 4.231-11.257z"/>
        <path d="m118.027 106.027c7.882-3.752 13.218-11.173 18.717-24.537-.378-17.185-6.237-35.615 2.515-48.595-8.99 1.967-23.667 8.5-21.927 30.251 1.768 22.117 4.739 32.828.695 42.881z"/>
    </g>
    <path d="m98.008 248.881c-1.206-6.528-9.736-8.69-12.6-11.555-4.976-4.976-24.883-24.883-13.685-34.836 8.529-7.581 19.938-11.56 24.894-20.72-1.936 7.372-2.134 14.866-8.72 20.72-11.2 9.953 7.464 29.86 12.441 34.836 2.865 2.865 11.394 5.027 12.6 11.555a3.905 3.905 0 0 1 -3.832 4.619h-14.93a3.905 3.905 0 0 0 3.832-4.619z"
          fill="#dae6f1"/>
    <path d="m198.283 178.872a4.284 4.284 0 0 1 .265-5.249c2.49-2.787 3.785-7.318 3.3-12.132-.626-6.218-12.772-20.681-30.235-19.51-.522.035-1.04.1-1.555.181 12.932 4.046 20.435 16.147 20.373 21.442-.056 4.838-1.849 9.2-4.634 11.688a4.283 4.283 0 0 0 -.848 5.187l7.057 13.359a3.406 3.406 0 0 0 5.6.612 24.56 24.56 0 0 0 5.282-8.813z"
          fill="#dae6f1"/>
    <path d="m98.008 248.881a3.905 3.905 0 0 1 -3.832 4.619h14.929a3.905 3.905 0 0 0 3.832-4.619c-.572-3.1-2.8-5.208-5.281-6.881h-14.93c2.483 1.673 4.709 3.782 5.282 6.881z"
          fill="#a7c3d8"/>
    <path d="m198.283 178.872a4.432 4.432 0 0 1 -.76-2.509l-8-7.155a13.79 13.79 0 0 1 -3.727 6.084 4.283 4.283 0 0 0 -.848 5.187l7.057 13.359a3.406 3.406 0 0 0 5.6.612 24.56 24.56 0 0 0 5.282-8.813z"
          fill="#a7c3d8"/>
    <path d="m225.16 81.474-8.282-15.213a4.846 4.846 0 0 1 -.552-2.422c.165-9.748-6.819-15.446-11.612-18.2a3.051 3.051 0 0 1 -.518-4.88 24.392 24.392 0 0 0 6.313-10.218 1.774 1.774 0 0 0 -2.057-2.3c-4.38.985-12.928 3.374-19.271 8.052a3.85 3.85 0 0 1 -2.825.7c-6.7-.937-33.024-2.177-45.381 33.244-11.975 34.331-20.254 40.463-49.353 38.863a37.675 37.675 0 0 0 -26.213 9.024q-.825.69-1.6 1.391c-17.206 15.46-20.54 41.1-8.88 61.08 3.048 5.223 4.324 9.038-.622 21.9-6.213 16.152 13.694 23.5 16.03 47.972a3.392 3.392 0 0 0 3.294 3.038h20.544a3.9 3.9 0 0 0 3.832-4.619c-1.206-6.528-9.734-8.69-12.6-11.555-4.976-4.976-24.882-24.883-13.685-34.836 8.592-7.637 20.114-11.612 25.011-20.917 24.331-2.721 49.214-18.9 56.169-31.106a7.532 7.532 0 0 1 4.519-3.329 24.336 24.336 0 0 0 5.58-2.427 19.644 19.644 0 0 1 8.614-2.73c17.463-1.171 29.609 13.292 30.235 19.51.483 4.814-.812 9.345-3.3 12.132a4.284 4.284 0 0 0 -.265 5.249l8.5 12.489a3.406 3.406 0 0 0 5.634-.017c4-5.914 4.609-10.632 2.434-19.686-2.631-10.955-1.7-27.227-6.7-33.863-2.146-2.848-9.019-9.6-17.415-12.4a6.772 6.772 0 0 1 -4.62-6.543 54.209 54.209 0 0 0 -4.257-21c-6.128-14.968-1.375-26.741-1.375-26.741 5.353 8.912 14.163 11.021 19.154 11.468a6.413 6.413 0 0 1 5.121 3.454c1.694 3.244 5.206 7.72 11.831 8.247q.585.047 1.131.048c6.512.023 10.55-7.141 7.437-12.859z"
          fill="#edf4fc"/>
    <path d="m70.334 250.462a3.392 3.392 0 0 0 3.294 3.038h20.547a3.9 3.9 0 0 0 3.832-4.619c-.572-3.1-2.8-5.208-5.281-6.881h-24.018a44.979 44.979 0 0 1 1.626 8.462z"
          fill="#c7d7e5"/>
    <path d="m198.548 173.623a4.284 4.284 0 0 0 -.265 5.249l8.5 12.489a3.406 3.406 0 0 0 5.634-.017 18.509 18.509 0 0 0 3.575-13.1l-14.318-11.565a14.005 14.005 0 0 1 -3.126 6.944z"
          fill="#c7d7e5"/>
    <path d="m116.372 20.6h-2.266v-2.27a3.071 3.071 0 0 0 -6.142 0v2.27h-2.264a3.071 3.071 0 1 0 0 6.142h2.265v2.258a3.071 3.071 0 1 0 6.142 0v-2.262h2.266a3.071 3.071 0 0 0 0-6.142z"
          fill="#f5c84c"/>
    <path d="m160.857 208.366a10.8 10.8 0 0 1 -8.654-8.478.2.2 0 0 0 -.384 0 10.794 10.794 0 0 1 -8.654 8.478.19.19 0 0 0 0 .376 10.8 10.8 0 0 1 8.654 8.479.2.2 0 0 0 .384 0 10.8 10.8 0 0 1 8.654-8.479.19.19 0 0 0 0-.376z"
          fill="#ef4460"/>
    <circle cx="135.019" cy="3.285" fill="#70d6f9" r="3.285"/>
    <circle cx="164.019" cy="180.285" fill="#f5c84c" r="3.285"/>
    <circle cx="34.019" cy="118.285" fill="#87d147" r="3.285"/>
    <path d="m109.105 256h-14.929a2.5 2.5 0 0 1 0-5 1.378 1.378 0 0 0 1.071-.5 1.4 1.4 0 0 0 .3-1.162c-.615-3.327-4.214-5.373-7.389-7.178a21.588 21.588 0 0 1 -4.52-3.063c-4.48-4.48-18.114-18.114-17.779-29.518a12.047 12.047 0 0 1 4.2-8.954 86.241 86.241 0 0 1 10.433-7.58c5.706-3.721 11.1-7.236 13.923-12.462a2.5 2.5 0 0 1 4.617 1.825c-.387 1.473-.712 3-1.026 4.474-1.287 6.045-2.618 12.3-8.452 17.48a7.62 7.62 0 0 0 -2.674 5.738c-.271 9.223 11.585 21.815 15.224 25.456a19.056 19.056 0 0 0 3.457 2.251c3.712 2.111 8.8 5 9.835 10.617a6.405 6.405 0 0 1 -6.291 7.576zm-8.687-5h8.687a1.373 1.373 0 0 0 1.07-.5 1.4 1.4 0 0 0 .3-1.162c-.615-3.327-4.214-5.373-7.389-7.178a21.6 21.6 0 0 1 -4.521-3.063c-5.124-5.124-17.007-18.22-16.686-29.137a12.543 12.543 0 0 1 4.351-9.335 18.854 18.854 0 0 0 5.642-9.529 90.167 90.167 0 0 1 -8.651 6.136 82.452 82.452 0 0 0 -9.842 7.13 7.125 7.125 0 0 0 -2.524 5.364c-.224 7.643 8.749 18.268 16.316 25.836a19.006 19.006 0 0 0 3.456 2.251c3.713 2.111 8.8 5 9.835 10.617a6.435 6.435 0 0 1 -.044 2.57z"/>
    <path d="m202.389 64.884a2.5 2.5 0 0 1 -2.278-1.467c-1.641-3.615-4.181-3.331-4.672-3.237a2.48 2.48 0 0 1 -2.979-1.873 2.52 2.52 0 0 1 1.891-3.007c2.367-.551 7.569.006 10.313 6.05a2.5 2.5 0 0 1 -2.275 3.534z"/>
    <path d="m94.175 256h-20.547a5.879 5.879 0 0 1 -5.783-5.3c-1.049-10.995-5.871-18.384-10.125-24.9-4.872-7.467-9.474-14.52-5.75-24.2 4.893-12.722 3.175-15.666.8-19.741-12.375-21.2-8.435-48.2 9.368-64.2q.812-.728 1.668-1.447a40.1 40.1 0 0 1 27.956-9.6c28.265 1.554 35.278-4.007 46.856-37.195 5.5-15.752 14.294-26.423 26.152-31.715a41.334 41.334 0 0 1 21.93-3.192 1.346 1.346 0 0 0 1-.234c6.677-4.925 15.526-7.425 20.2-8.478a4.256 4.256 0 0 1 4.084 1.293 4.3 4.3 0 0 1 .9 4.229 27.188 27.188 0 0 1 -6.969 11.252.612.612 0 0 0 -.2.526.469.469 0 0 0 .246.372c4.886 2.809 13.055 9.2 12.865 20.412a2.377 2.377 0 0 0 .248 1.183l8.283 15.214a11.2 11.2 0 0 1 -.237 11.194 10.827 10.827 0 0 1 -9.36 5.357h-.044q-.639 0-1.321-.056c-5.951-.474-10.87-3.877-13.849-9.583a3.92 3.92 0 0 0 -3.127-2.12c-4.415-.4-11.928-2.035-17.76-8.264a37.87 37.87 0 0 0 2.517 20.1 56.89 56.89 0 0 1 4.444 21.978 4.274 4.274 0 0 0 2.91 4.14c9.445 3.145 16.644 10.642 18.622 13.265 3.559 4.723 4.377 12.84 5.244 21.434a106.361 106.361 0 0 0 1.891 13.35c2.324 9.673 1.619 15.141-2.794 21.67a5.905 5.905 0 0 1 -4.887 2.6h-.01a5.89 5.89 0 0 1 -4.874-2.576l-8.5-12.488a6.756 6.756 0 0 1 .467-8.323c2.054-2.3 3.081-6.214 2.678-10.216-.46-4.577-11.3-18.361-27.579-17.265a17.222 17.222 0 0 0 -7.515 2.39 26.866 26.866 0 0 1 -6.154 2.674 5.053 5.053 0 0 0 -3.039 2.165c-7.314 12.84-32.247 29-56.789 32.2-3.515 5.808-9.375 9.626-15.054 13.326a82.318 82.318 0 0 0 -9.85 7.13 7.127 7.127 0 0 0 -2.523 5.364c-.225 7.643 8.749 18.268 16.316 25.836a19.006 19.006 0 0 0 3.456 2.251c3.713 2.111 8.8 5 9.835 10.617a6.405 6.405 0 0 1 -6.296 7.571zm-4.5-144.456a35.326 35.326 0 0 0 -22.661 8.493q-.792.663-1.539 1.335c-16.047 14.418-19.576 38.794-8.391 57.96 3.743 6.412 4.507 11.172-.448 24.056-2.807 7.3.581 12.49 5.271 19.676 4.343 6.656 9.748 14.94 10.914 27.161a.9.9 0 0 0 .806.775h20.548a1.378 1.378 0 0 0 1.071-.5 1.4 1.4 0 0 0 .3-1.162c-.615-3.327-4.214-5.373-7.389-7.178a21.588 21.588 0 0 1 -4.52-3.063c-4.481-4.48-18.114-18.114-17.779-29.518a12.047 12.047 0 0 1 4.2-8.954 86.2 86.2 0 0 1 10.442-7.586c5.768-3.758 11.216-7.307 14.018-12.63a2.5 2.5 0 0 1 1.934-1.321c22.781-2.547 47.444-17.865 54.275-29.859a9.929 9.929 0 0 1 6-4.493 21.88 21.88 0 0 0 5-2.18 22.269 22.269 0 0 1 9.715-3.07c17.917-1.2 32.049 13.4 32.889 21.755.546 5.434-.921 10.686-3.925 14.048a1.791 1.791 0 0 0 -.062 2.177l8.5 12.488a.92.92 0 0 0 .743.39.892.892 0 0 0 .753-.4c3.621-5.358 4.086-9.329 2.075-17.7a109.685 109.685 0 0 1 -2.005-14.016c-.759-7.533-1.545-15.321-4.262-18.926-1.6-2.125-8.016-8.8-16.209-11.531a9.258 9.258 0 0 1 -6.33-8.946 51.858 51.858 0 0 0 -4.061-20.025c-6.439-15.727-1.589-28.105-1.379-28.624a2.5 2.5 0 0 1 4.461-.351c4.818 8.02 12.866 9.874 17.234 10.264a8.9 8.9 0 0 1 7.114 4.788c1.523 2.918 4.462 6.486 9.814 6.912.334.027.659.03.968.04a5.8 5.8 0 0 0 5.065-2.919 6.245 6.245 0 0 0 .139-6.242l-8.282-15.213a7.3 7.3 0 0 1 -.856-3.659c.139-8.215-5.556-13.232-10.358-15.993a5.45 5.45 0 0 1 -2.719-4.119 5.652 5.652 0 0 1 1.729-4.745 21.646 21.646 0 0 0 5.216-7.956c-4.492 1.1-11.645 3.345-17.028 7.316a6.319 6.319 0 0 1 -4.656 1.162c-7.081-.989-31.083-1.638-42.675 31.591-12.214 35.016-21.424 42.213-51.85 40.54q-.904-.048-1.809-.048z"/>
    <path d="m195.017 198.146a5.891 5.891 0 0 1 -5.22-3.14l-7.057-13.359a6.755 6.755 0 0 1 1.392-8.218c2.3-2.056 3.755-5.831 3.8-9.853.044-3.818-6.427-15.213-18.621-19.028a2.5 2.5 0 0 1 .363-4.856c.666-.1 1.229-.169 1.771-.205 18.983-1.286 32.159 14.484 32.89 21.754.546 5.434-.921 10.686-3.925 14.048a1.791 1.791 0 0 0 -.062 2.177l4.606 6.764a2.5 2.5 0 0 1 .324 2.139 27.415 27.415 0 0 1 -5.769 9.7 5.9 5.9 0 0 1 -4.492 2.077zm-13.144-52.429c7.029 5.614 11.115 13.159 11.061 17.916-.064 5.462-2.108 10.516-5.469 13.522a1.793 1.793 0 0 0 -.3 2.157l7.057 13.358a.907.907 0 0 0 1.488.159 23.89 23.89 0 0 0 4.411-6.822l-3.9-5.727a6.755 6.755 0 0 1 .467-8.322c2.054-2.3 3.081-6.214 2.678-10.216-.361-3.55-6.958-12.633-17.493-16.025z"/>
    <path d="m136.745 83.99a2.465 2.465 0 0 1 -.459-.042 2.5 2.5 0 0 1 -2.042-2.4c-.1-4.642-.626-9.49-1.134-14.179-1.682-15.551-3.422-31.632 10.044-42.262 8.806-6.952 17.75-9.915 26.584-8.814 13.019 1.626 22.043 11.739 25.318 16.011a2.5 2.5 0 0 1 -.78 3.712 32.409 32.409 0 0 0 -3.61 2.287 6.325 6.325 0 0 1 -4.656 1.162c-7.081-.989-31.083-1.638-42.675 31.591-1.519 4.356-2.918 8.081-4.279 11.388a2.5 2.5 0 0 1 -2.311 1.546zm29.422-62.922c-6.528 0-13.212 2.669-19.915 7.961-11.3 8.917-9.777 22.946-8.17 37.8.112 1.04.226 2.088.335 3.142.066-.187.131-.375.2-.565 5.5-15.752 14.294-26.423 26.152-31.715a41.334 41.334 0 0 1 21.931-3.181 1.339 1.339 0 0 0 1-.233q.763-.564 1.6-1.11c-3.75-4.283-10.837-10.749-20.182-11.916a23.885 23.885 0 0 0 -2.951-.183z"/>
    <path d="m118.027 108.527a2.5 2.5 0 0 1 -2.319-3.433c2.758-6.858 1.953-14.268.618-26.547-.48-4.412-1.023-9.414-1.487-15.2-1.963-24.541 16.05-31.179 23.886-32.893a2.5 2.5 0 0 1 2.607 3.84c-5.826 8.639-4.572 20.255-3.246 32.553.517 4.788 1.051 9.738 1.157 14.59a2.507 2.507 0 0 1 -.187 1c-5.94 14.437-11.722 21.925-19.954 25.844a2.5 2.5 0 0 1 -1.075.246zm16.313-71.537c-8.23 3.291-15.754 10.487-14.516 25.957.457 5.717 1 10.68 1.473 15.06 1 9.231 1.757 16.168.823 22.369 4.445-3.862 8.192-9.927 12.111-19.352-.127-4.478-.63-9.134-1.116-13.642-1.13-10.47-2.291-21.235 1.225-30.392z"/>
    <path d="m10.317 219.761a4.154 4.154 0 0 1 -3.26-1.578 4.2 4.2 0 0 1 -.39-4.637c5.448-9.932 4.08-19.092 2.631-28.791-1.661-11.121-3.379-22.62 5-35.639 11.276-17.523 27.347-19.061 38.842-17.266a2.5 2.5 0 0 1 1.872 3.544 45.746 45.746 0 0 0 -3.683 11.393 2.5 2.5 0 0 1 -1.755 1.947c-8.82 2.586-9.756 15.191-10.942 31.149-.188 2.53-.381 5.13-.613 7.773-1.991 22.708-19.25 29.909-26.578 31.951a4.17 4.17 0 0 1 -1.124.154zm35.478-83.5c-11.475 0-20.635 5.215-27.293 15.563-7.359 11.436-5.853 21.519-4.259 32.195 1.431 9.579 2.908 19.469-2.3 30.209 7.949-2.663 19.561-9.527 21.1-27.006.229-2.622.42-5.2.607-7.707 1.223-16.459 2.286-30.768 13.051-35.071a50.8 50.8 0 0 1 2.429-8.042q-1.701-.143-3.33-.143z"/>
    <path d="m214.979 59.1a2.5 2.5 0 0 1 -2.313-1.552c-1.974-4.817-6.091-7.958-9.2-9.745a5.566 5.566 0 0 1 -.9-.661 2.5 2.5 0 0 1 .55-4.117l40.774-20.088a4.127 4.127 0 0 1 4.591 6.765l-31.826 28.754a2.5 2.5 0 0 1 -1.676.644zm-5.772-13.5a25.627 25.627 0 0 1 6.51 6.964l24.767-22.377z"/>
    <path d="m94.175 256h-20.547a5.879 5.879 0 0 1 -5.783-5.3 42.128 42.128 0 0 0 -1.535-7.993 2.5 2.5 0 0 1 2.4-3.206h24.016a2.494 2.494 0 0 1 1.4.427c2.34 1.576 5.544 4.173 6.343 8.5a6.405 6.405 0 0 1 -6.294 7.572zm-22.248-11.5a48.333 48.333 0 0 1 .9 5.725.9.9 0 0 0 .805.774h20.543a1.378 1.378 0 0 0 1.071-.5 1.4 1.4 0 0 0 .3-1.162c-.324-1.752-1.445-3.263-3.61-4.835z"/>
    <path d="m209.6 195.344a5.89 5.89 0 0 1 -4.874-2.576l-8.5-12.488a6.755 6.755 0 0 1 .467-8.322 11.6 11.6 0 0 0 2.53-5.7 2.5 2.5 0 0 1 4.035-1.518l14.309 11.56a2.5 2.5 0 0 1 .92 1.735 20.994 20.994 0 0 1 -4 14.707 5.905 5.905 0 0 1 -4.887 2.6zm-6.558-24.344a14.775 14.775 0 0 1 -2.63 4.291 1.791 1.791 0 0 0 -.062 2.177l8.5 12.488a.92.92 0 0 0 .743.39.892.892 0 0 0 .753-.4c2.457-3.635 3.378-6.56 3.221-10.442z"/>
    <path d="m109.105 256h-14.929a2.5 2.5 0 0 1 0-5 1.378 1.378 0 0 0 1.071-.5 1.4 1.4 0 0 0 .3-1.162c-.353-1.91-1.654-3.533-4.22-5.262a2.5 2.5 0 0 1 1.4-4.573h14.93a2.5 2.5 0 0 1 1.4.427c2.34 1.576 5.543 4.173 6.343 8.5a6.405 6.405 0 0 1 -6.295 7.57zm-8.687-5h8.687a1.373 1.373 0 0 0 1.07-.5 1.4 1.4 0 0 0 .3-1.162c-.324-1.752-1.446-3.263-3.61-4.835h-7.975a10.743 10.743 0 0 1 1.576 3.926 6.4 6.4 0 0 1 -.048 2.571z"/>
    <path d="m195.017 198.147a5.981 5.981 0 0 1 -.653-.036 5.89 5.89 0 0 1 -4.567-3.1l-7.057-13.359a6.755 6.755 0 0 1 1.392-8.218 11.262 11.262 0 0 0 3.014-4.988 2.5 2.5 0 0 1 4.047-1.1l8 7.156a2.5 2.5 0 0 1 .833 1.873 1.92 1.92 0 0 0 .327 1.093l4.606 6.764a2.5 2.5 0 0 1 .324 2.139 27.4 27.4 0 0 1 -5.769 9.7 5.906 5.906 0 0 1 -4.497 2.076zm-4.579-24.77a14.553 14.553 0 0 1 -2.973 3.778 1.793 1.793 0 0 0 -.3 2.157l7.057 13.358a.906.906 0 0 0 1.488.158 23.846 23.846 0 0 0 4.411-6.821l-3.9-5.727a6.866 6.866 0 0 1 -1.092-2.708z"/>
</svg>
